<svg width="24" height="24" viewBox="0 0 24 24" fill="none" xmlns="http://www.w3.org/2000/svg">
<path opacity="0.4" d="M3 17.9808V12.7075C3 9.07416 3 7.25748 4.09835 6.12874C5.1967 5 6.96447 5 10.5 5C14.0355 5 15.8033 5 16.9017 6.12874C18 7.25748 18 9.07416 18 12.7075V17.9808C18 20.2867 18 21.4396 17.2755 21.8523C15.8724 22.6514 13.2405 19.9852 11.9906 19.1824C11.2657 18.7168 10.9033 18.484 10.5 18.484C10.0967 18.484 9.73425 18.7168 9.00938 19.1824C7.7595 19.9852 5.12763 22.6514 3.72454 21.8523C3 21.4396 3 20.2867 3 17.9808Z" fill="#F5A623"/>
<path d="M16.3864 2.92619C15.0864 2.75141 13.3782 2.74982 11 2.74982H8.99999C8.58578 2.74982 8.24999 2.41403 8.24999 1.99982C8.24999 1.58561 8.58578 1.24982 8.99999 1.24982H11.0574C13.3657 1.24981 15.1748 1.2498 16.5863 1.43957C18.031 1.63381 19.1711 2.03915 20.0659 2.93396C20.9607 3.82877 21.366 4.96879 21.5603 6.41353C21.75 7.82501 21.75 9.63405 21.75 11.9424V17.9998C21.75 18.414 21.4142 18.7498 21 18.7498C20.5858 18.7498 20.25 18.414 20.25 17.9998V11.9998C20.25 9.62159 20.2484 7.91338 20.0736 6.6134C19.9018 5.33499 19.5749 4.56427 19.0052 3.99462C18.4355 3.42496 17.6648 3.09807 16.3864 2.92619Z" fill="#F5A623"/>
<path fill-rule="evenodd" clip-rule="evenodd" d="M10.4425 4.24982H10.5575C12.2765 4.2498 13.6449 4.24979 14.7174 4.39797C15.8256 4.55108 16.7283 4.87499 17.4392 5.60552C18.1472 6.33318 18.4587 7.2525 18.6064 8.38143C18.75 9.47951 18.75 10.8823 18.75 12.6524V18.0457C18.75 19.1446 18.75 20.0523 18.6518 20.7333C18.5517 21.4269 18.3196 22.1204 17.6467 22.5038C17.0341 22.8527 16.3603 22.7791 15.8025 22.5985C15.2397 22.4162 14.6717 22.0871 14.1564 21.7398C13.6353 21.3885 13.1247 20.9884 12.682 20.6394L12.6317 20.5997C12.1962 20.2563 11.8493 19.9828 11.5853 19.8133C11.2096 19.5719 10.9761 19.4231 10.788 19.3286C10.6156 19.2419 10.5428 19.2338 10.5 19.2338C10.4572 19.2338 10.3844 19.2419 10.212 19.3286C10.0239 19.4231 9.79044 19.5719 9.41469 19.8133C9.15106 19.9826 8.80459 20.2558 8.36987 20.5985L8.31796 20.6394C7.87532 20.9884 7.36473 21.3885 6.8436 21.7398C6.32829 22.0871 5.76033 22.4162 5.19751 22.5985C4.63974 22.7791 3.9659 22.8527 3.35334 22.5038C2.68035 22.1204 2.44825 21.4269 2.34824 20.7333C2.24994 20.0517 2.24996 19.1428 2.24999 18.0425V12.6524C2.24998 10.8824 2.24997 9.4795 2.39362 8.38143C2.54132 7.2525 2.85275 6.33318 3.56083 5.60552C4.27168 4.87499 5.17443 4.55108 6.28257 4.39797C7.35507 4.24979 8.72354 4.2498 10.4425 4.24982ZM6.48787 5.88386C5.55366 6.01293 5.02336 6.25339 4.63586 6.65161C4.24558 7.05268 4.00784 7.60608 3.88095 8.57601C3.7515 9.56547 3.74999 10.87 3.74999 12.7073V17.9806C3.74999 19.1583 3.75189 19.9576 3.83288 20.5192C3.91401 21.0818 4.04418 21.171 4.09574 21.2004C4.18472 21.2511 4.36602 21.291 4.73539 21.1714C5.09973 21.0534 5.53093 20.8156 6.00522 20.496C6.47367 20.1802 6.94309 19.8132 7.3893 19.4615L7.4743 19.3944C7.87586 19.0776 8.27629 18.7617 8.60405 18.5512L8.63359 18.5322C8.9707 18.3156 9.27113 18.1226 9.53852 17.9883C9.82938 17.8421 10.1395 17.7338 10.5 17.7338C10.8605 17.7338 11.1706 17.8421 11.4615 17.9883C11.7289 18.1226 12.0293 18.3156 12.3664 18.5322L12.3959 18.5512C12.7237 18.7617 13.1242 19.0776 13.5258 19.3945L13.6107 19.4615C14.0569 19.8132 14.5263 20.1802 14.9948 20.496C15.4691 20.8156 15.9003 21.0534 16.2646 21.1714C16.634 21.291 16.8153 21.2511 16.9043 21.2004C16.9558 21.171 17.086 21.0818 17.1671 20.5192C17.2481 19.9576 17.25 19.1583 17.25 17.9806V12.7073C17.25 10.87 17.2485 9.56547 17.119 8.57601C16.9922 7.60608 16.7544 7.05268 16.3641 6.65161C15.9766 6.25339 15.4463 6.01293 14.5121 5.88386C13.5542 5.7515 12.2895 5.74982 10.5 5.74982C8.71045 5.74982 7.44581 5.7515 6.48787 5.88386Z" fill="#F5A623"/>
</svg>
