<svg width="44" height="44" viewBox="0 0 44 44" fill="none" xmlns="http://www.w3.org/2000/svg">
<g filter="url(#filter0_d_257_8431)">
<rect x="8" y="4" width="28" height="28" rx="14" fill="white"/>
<rect x="8" y="4" width="28" height="28" rx="14" fill="url(#paint0_linear_257_8431)"/>
<rect x="8.25" y="4.25" width="27.5" height="27.5" rx="13.75" stroke="#1F1F1F" stroke-opacity="0.08" stroke-width="0.5"/>
<path opacity="0.4" d="M16.1769 24.6408L16.3636 24.6457C17.7355 24.6816 18.4214 24.6995 19.0454 24.4558C19.6693 24.2121 20.1686 23.7313 21.1671 22.7695L21.1671 22.7695L27.1033 17.052L23 13L17.1929 19.2963C16.3863 20.1703 15.983 20.6073 15.7491 21.1455C15.5153 21.6837 15.4687 22.2824 15.3754 23.4798L15.3574 23.7108C15.3242 24.1362 15.3077 24.3489 15.4291 24.4867C15.5504 24.6245 15.7593 24.6299 16.1769 24.6408Z" fill="white"/>
<path fill-rule="evenodd" clip-rule="evenodd" d="M24.136 11.1962C24.9258 10.7265 25.8997 10.7118 26.7029 11.1577C27.0361 11.3427 27.34 11.6534 27.792 12.1154L27.9147 12.2408C28.3683 12.7038 28.6718 13.0137 28.852 13.3524C29.2844 14.1652 29.2704 15.1484 28.8146 15.948C28.6247 16.2814 28.3122 16.5821 27.8456 17.0312L21.4332 23.2074C20.5126 24.0944 19.9452 24.6411 19.2273 24.9216C18.5083 25.2024 17.7265 25.1818 16.4617 25.1485L16.1371 25.14C15.9517 25.1352 15.7643 25.1303 15.6096 25.1045C15.4319 25.0749 15.2209 25.0067 15.0539 24.8173C14.8884 24.6295 14.846 24.4127 14.836 24.2344C14.8273 24.0768 14.842 23.888 14.8568 23.6982L14.8841 23.348C14.9703 22.2396 15.023 21.562 15.2905 20.9462C15.5584 20.3296 16.0161 19.8339 16.7628 19.0251L23.0751 12.1861C23.5137 11.7106 23.8084 11.391 24.136 11.1962ZM26.2175 12.032C25.7257 11.759 25.1312 11.7678 24.6472 12.0557C24.4616 12.1661 24.2713 12.3645 23.7499 12.9294L23.6955 12.9883L27.0838 16.3766L27.0893 16.3712C27.6417 15.8392 27.8368 15.6442 27.9458 15.4529C28.2316 14.9513 28.2406 14.3323 27.9692 13.8221C27.8657 13.6275 27.6762 13.4266 27.1394 12.8783C26.6019 12.3292 26.4061 12.1367 26.2175 12.032ZM17.5604 19.6354L23.0167 13.7238L26.3634 17.0704L20.8202 22.4094C19.7919 23.3999 19.3727 23.7912 18.8635 23.9901C18.3554 24.1885 17.7898 24.1828 16.3766 24.1459L16.19 24.141C16.0836 24.1382 15.9994 24.136 15.9271 24.1322C15.8896 24.1302 15.8588 24.128 15.8333 24.1256C15.8335 24.0454 15.8417 23.932 15.8559 23.7496L15.8739 23.5186C15.9698 22.2876 16.015 21.7882 16.2077 21.3447C16.4 20.902 16.731 20.5341 17.5604 19.6354Z" fill="white"/>
<path d="M23.3334 24.1667C23.0573 24.1667 22.8334 24.3905 22.8334 24.6667C22.8334 24.9428 23.0573 25.1667 23.3334 25.1667H28.6667C28.9429 25.1667 29.1667 24.9428 29.1667 24.6667C29.1667 24.3905 28.9429 24.1667 28.6667 24.1667H23.3334Z" fill="white"/>
</g>
<defs>
<filter id="filter0_d_257_8431" x="0" y="0" width="44" height="44" filterUnits="userSpaceOnUse" color-interpolation-filters="sRGB">
<feFlood flood-opacity="0" result="BackgroundImageFix"/>
<feColorMatrix in="SourceAlpha" type="matrix" values="0 0 0 0 0 0 0 0 0 0 0 0 0 0 0 0 0 0 127 0" result="hardAlpha"/>
<feOffset dy="4"/>
<feGaussianBlur stdDeviation="4"/>
<feComposite in2="hardAlpha" operator="out"/>
<feColorMatrix type="matrix" values="0 0 0 0 0.517647 0 0 0 0 0.886275 0 0 0 0 0.996078 0 0 0 0.24 0"/>
<feBlend mode="normal" in2="BackgroundImageFix" result="effect1_dropShadow_257_8431"/>
<feBlend mode="normal" in="SourceGraphic" in2="effect1_dropShadow_257_8431" result="shape"/>
</filter>
<linearGradient id="paint0_linear_257_8431" x1="22" y1="4" x2="22" y2="32" gradientUnits="userSpaceOnUse">
<stop stop-color="#50B5E7"/>
<stop offset="1" stop-color="#19C6F9"/>
</linearGradient>
</defs>
</svg>
