<svg width="24" height="24" viewBox="0 0 24 24" fill="none" xmlns="http://www.w3.org/2000/svg">
<path opacity="0.4" fill-rule="evenodd" clip-rule="evenodd" d="M12.0012 22C12.6042 22 13.1842 21.77 13.6182 21.37C13.9212 21.08 14.2312 20.8 14.5452 20.51C18.3612 16.99 22.7112 12.98 20.3162 7.37998C18.9132 4.09998 15.5442 2 12.0012 2C8.45817 2 5.09018 4.09998 3.68618 7.37998C1.30118 12.96 5.60319 16.94 9.39819 20.45C9.73219 20.76 10.0632 21.06 10.3842 21.37C10.8182 21.77 11.3982 22 12.0012 22ZM13.2212 9.25L12.6052 8.00996C12.2722 7.32996 11.7262 7.32996 11.3902 8.00996L10.7742 9.25C10.6902 9.42 10.4662 9.59002 10.2812 9.62002L9.16518 9.80996C8.45118 9.91996 8.28622 10.45 8.79722 10.96L9.66518 11.84C9.81218 11.99 9.89222 12.27 9.84722 12.48L9.59922 13.56C9.40322 14.41 9.8572 14.75 10.6062 14.3L11.6532 13.68C11.8452 13.56 12.1572 13.56 12.3462 13.68L13.3922 14.3C14.1452 14.75 14.5962 14.42 14.4002 13.56L14.1522 12.48C14.1062 12.27 14.1862 11.99 14.3332 11.84L15.2012 10.96C15.7162 10.45 15.5482 9.91996 14.8342 9.80996L13.7182 9.62002C13.5292 9.59002 13.3052 9.42 13.2212 9.25Z" fill="#FF7C38"/>
<path fill-rule="evenodd" clip-rule="evenodd" d="M13.0073 14.944C13.3923 15.174 13.7183 15.253 13.9843 15.253V15.252C14.3123 15.252 14.5484 15.132 14.6914 15.028C14.9524 14.839 15.3554 14.375 15.1314 13.391L14.8923 12.345V12.341L15.7294 11.492C16.1844 11.041 16.3524 10.497 16.1914 10C16.0314 9.507 15.5813 9.16704 14.9553 9.06904L13.8794 8.88603L13.8773 8.88496L13.2773 7.67803C12.9883 7.08903 12.5223 6.75 12.0003 6.75H11.9983C11.4753 6.75 11.0094 7.08798 10.7184 7.67598L10.1173 8.88603C10.1163 8.88803 10.1153 8.88799 10.1153 8.88799L9.04434 9.07002C8.42134 9.16802 7.97136 9.50702 7.81036 9.99902C7.64836 10.495 7.81434 11.039 8.26334 11.487L9.10635 12.342C9.10735 12.344 9.10836 12.348 9.10836 12.348L8.86836 13.392C8.63436 14.408 9.09936 14.874 9.31036 15.027C9.52036 15.179 10.1043 15.477 10.9883 14.946L11.9994 14.347L13.0073 14.944ZM13.6334 13.571L12.7363 13.039L12.7354 13.042C12.3084 12.779 11.6944 12.778 11.2644 13.041L10.3653 13.573L10.5773 12.65C10.5773 12.648 10.5778 12.6462 10.5784 12.6445C10.5789 12.6427 10.5794 12.641 10.5794 12.639C10.6784 12.18 10.5253 11.649 10.1983 11.315L9.42237 10.528L10.4003 10.362C10.8233 10.293 11.2534 9.97296 11.4454 9.58496L11.9974 8.47402L12.5483 9.58301C12.7413 9.97401 13.1743 10.294 13.5923 10.36L14.5753 10.527L13.7974 11.315C13.4714 11.649 13.3193 12.181 13.4213 12.648L13.6334 13.571Z" fill="#FF7C38"/>
<path fill-rule="evenodd" clip-rule="evenodd" d="M9.87614 21.921C10.4551 22.456 11.2101 22.75 12.0011 22.75H12.0031C12.7941 22.75 13.5481 22.455 14.1281 21.921L14.1332 21.917C14.4206 21.6476 14.7153 21.3755 15.013 21.1007L15.0592 21.058C18.869 17.5432 23.6099 13.1694 21.0071 7.08496C19.5141 3.59496 15.8942 1.25 12.0022 1.25C8.11016 1.25 4.49118 3.59496 2.99718 7.08496C1.83218 9.80896 2.02316 12.422 3.57916 15.072C4.88716 17.299 6.92317 19.183 8.89117 21.004C9.22317 21.311 9.55114 21.615 9.87614 21.921ZM4.37614 7.675C5.63614 4.729 8.70114 2.75 12.0011 2.75H12.0022C15.3022 2.75 18.3672 4.729 19.6272 7.675C20.6082 9.969 20.4461 12.088 19.1151 14.342C17.9085 16.3868 15.9454 18.198 14.0463 19.9503L14.0038 19.9896C13.7011 20.2692 13.4014 20.546 13.1091 20.82C12.8111 21.093 12.4092 21.25 12.0022 21.25C11.5952 21.25 11.1912 21.093 10.8992 20.824C10.5891 20.5312 10.2696 20.2357 9.94723 19.9373L9.91017 19.903C6.11935 16.3952 2.19925 12.7677 4.37614 7.675Z" fill="#FF7C38"/>
</svg>
