<svg width="24" height="24" viewBox="0 0 24 24" fill="none" xmlns="http://www.w3.org/2000/svg">
<path opacity="0.4" fill-rule="evenodd" clip-rule="evenodd" d="M12 22C17.5228 22 22 17.5228 22 12C22 6.47715 17.5228 2 12 2C6.47715 2 2 6.47715 2 12C2 17.5228 6.47715 22 12 22ZM12 10.1855C10.067 10.1855 8.5 11.7111 8.5 13.593C8.5 15.4749 10.067 17.0004 12 17.0004C13.933 17.0004 15.5 15.4749 15.5 13.593C15.5 11.7111 13.933 10.1855 12 10.1855Z" fill="#51AC46"/>
<path d="M2.75 12C2.75 6.89311 6.9007 2.75 12.0247 2.75C16.5483 2.75 20.3142 5.97964 21.1339 10.25H20C19.5858 10.25 19.25 10.5858 19.25 11C19.25 11.4142 19.5858 11.75 20 11.75H22C22.2118 11.75 22.4138 11.6604 22.556 11.5034C22.6982 11.3463 22.7673 11.1365 22.7463 10.9257C22.2054 5.49118 17.6107 1.25 12.0247 1.25C6.07577 1.25 1.25 6.06119 1.25 12C1.25 17.9388 6.07577 22.75 12.0247 22.75C16.4432 22.75 20.2399 20.0965 21.9023 16.3009C22.0685 15.9215 21.8957 15.4792 21.5163 15.313C21.1368 15.1468 20.6945 15.3197 20.5284 15.6991C19.097 18.9672 15.8279 21.25 12.0247 21.25C6.9007 21.25 2.75 17.1069 2.75 12Z" fill="#51AC46"/>
<path fill-rule="evenodd" clip-rule="evenodd" d="M12 6.25C10.3622 6.25 9 7.54769 9 9.1905V10.6476C8.22966 11.3975 7.75 12.4361 7.75 13.5926C7.75 15.9075 9.67186 17.75 12 17.75C14.3281 17.75 16.25 15.9075 16.25 13.5926C16.25 12.4361 15.7703 11.3975 15 10.6476V9.1905C15 7.54769 13.6378 6.25 12 6.25ZM10.2385 11.5515C10.2296 11.5592 10.2205 11.5666 10.2112 11.5739C9.62029 12.0644 9.25 12.7918 9.25 13.5926C9.25 15.0414 10.4621 16.25 12 16.25C13.5379 16.25 14.75 15.0414 14.75 13.5926C14.75 12.7918 14.3797 12.0644 13.7888 11.5739C13.7795 11.5666 13.7704 11.5592 13.7615 11.5515C13.287 11.1679 12.6749 10.9351 12 10.9351C11.3251 10.9351 10.713 11.1679 10.2385 11.5515ZM12 9.43511C12.5266 9.43511 13.0325 9.52939 13.5 9.70209V9.1905C13.5 8.41375 12.8475 7.75 12 7.75C11.1525 7.75 10.5 8.41375 10.5 9.1905V9.70209C10.9675 9.52939 11.4734 9.43511 12 9.43511Z" fill="#51AC46"/>
</svg>
