<svg width="24" height="24" viewBox="0 0 24 24" fill="none" xmlns="http://www.w3.org/2000/svg">
<path opacity="0.4" d="M21 13C21 17.9706 16.9706 22 12 22C7.02944 22 3 17.9706 3 13C3 8.02944 7.02944 4 12 4C16.9706 4 21 8.02944 21 13Z" fill="#F4505C"/>
<path d="M12 1.25C11.7417 1.25 11.5193 1.33902 11.3578 1.42541C11.1904 1.51499 11.0348 1.63096 10.8968 1.74854C10.6213 1.98316 10.3457 2.28495 10.0995 2.57551C9.8698 2.84663 9.64683 3.13069 9.45675 3.37284L9.40971 3.43276C9.19651 3.70419 9.05089 3.886 8.96219 3.97726C8.67349 4.27428 8.68023 4.74911 8.97726 5.03781C9.27428 5.32651 9.74911 5.31977 10.0378 5.02274C10.1949 4.86115 10.3971 4.60404 10.5893 4.3593L10.6341 4.30235C10.827 4.05664 11.0333 3.79384 11.2439 3.54522L11.25 3.53807V11C11.25 11.4142 11.5858 11.75 12 11.75C12.4142 11.75 12.75 11.4142 12.75 11V3.53807L12.7561 3.54522C12.9667 3.79386 13.173 4.05663 13.3659 4.30235L13.4107 4.35931C13.6029 4.60404 13.8051 4.86115 13.9622 5.02274C14.2509 5.31977 14.7257 5.32651 15.0227 5.03781C15.3198 4.74911 15.3265 4.27428 15.0378 3.97726C14.9491 3.886 14.8035 3.70419 14.5903 3.43276L14.5432 3.37282C14.3532 3.13068 14.1302 2.84662 13.9005 2.57551C13.6543 2.28495 13.3787 1.98316 13.1032 1.74854C12.9652 1.63096 12.8096 1.51499 12.6422 1.42541C12.4807 1.33902 12.2583 1.25 12 1.25Z" fill="#F4505C"/>
<path d="M6.50019 7.05886C6.80883 6.78261 6.8351 6.30847 6.55885 5.99982C6.28261 5.69118 5.80846 5.66491 5.49981 5.94116C3.52157 7.71174 2.25 10.0933 2.25 13C2.25 18.3847 6.61522 22.75 12 22.75C17.3848 22.75 21.75 18.3847 21.75 13C21.75 10.0933 20.4784 7.71174 18.5002 5.94116C18.1915 5.66491 17.7174 5.69118 17.4411 5.99982C17.1649 6.30847 17.1912 6.78261 17.4998 7.05886C19.2041 8.5842 20.25 10.5756 20.25 13C20.25 17.5563 16.5563 21.25 12 21.25C7.44365 21.25 3.75 17.5563 3.75 13C3.75 10.5756 4.79594 8.5842 6.50019 7.05886Z" fill="#F4505C"/>
</svg>
