<svg width="24" height="24" viewBox="0 0 24 24" fill="none" xmlns="http://www.w3.org/2000/svg">
<path opacity="0.4" d="M6.02584 20.9749C7.05096 22 8.70088 22 12.0007 22C15.3005 22 16.9505 22 17.9756 20.9749C18.8915 20.059 18.9891 18.6444 18.9995 16V8C18.9891 5.35561 18.8915 3.94101 17.9756 3.02513C16.9505 2 15.3005 2 12.0007 2C8.70088 2 7.05096 2 6.02584 3.02513C5.10996 3.94101 5.01235 5.35561 5.00195 8V16C5.01235 18.6444 5.10996 20.059 6.02584 20.9749Z" fill="#39BADF"/>
<path d="M12.0555 1.25H11.9446C10.3299 1.24998 9.04246 1.24997 8.03292 1.38474C6.99081 1.52385 6.13306 1.81872 5.45405 2.49291C4.59078 3.35007 4.34077 4.49906 4.25143 5.95404C4.22605 6.36747 4.54063 6.72321 4.95406 6.74859C5.3675 6.77398 5.72323 6.4594 5.74861 6.04596C5.83359 4.66205 6.06186 4.00324 6.51093 3.55734C6.86438 3.2064 7.35369 2.98872 8.23139 2.87155C9.13013 2.75157 10.3173 2.75 12 2.75C13.6828 2.75 14.8699 2.75157 15.7687 2.87155C16.6464 2.98872 17.1357 3.2064 17.4891 3.55734C17.9382 4.00324 18.1665 4.66205 18.2514 6.04596C18.2768 6.4594 18.6326 6.77398 19.046 6.74859C19.4594 6.72321 19.774 6.36747 19.7486 5.95404C19.6593 4.49906 19.4093 3.35007 18.546 2.49291C17.867 1.81872 17.0092 1.52385 15.9671 1.38474C14.9576 1.24997 13.6701 1.24998 12.0555 1.25Z" fill="#39BADF"/>
<path d="M19.7486 18.046C19.774 17.6325 19.4594 17.2768 19.046 17.2514C18.6326 17.226 18.2768 17.5406 18.2514 17.954C18.1665 19.3379 17.9382 19.9968 17.4891 20.4427C17.1357 20.7936 16.6464 21.0113 15.7687 21.1285C14.8699 21.2484 13.6828 21.25 12 21.25C10.3173 21.25 9.13013 21.2484 8.23139 21.1285C7.35369 21.0113 6.86438 20.7936 6.51093 20.4427C6.06186 19.9968 5.83359 19.338 5.74861 17.954C5.72323 17.5406 5.3675 17.226 4.95406 17.2514C4.54063 17.2768 4.22605 17.6325 4.25143 18.046C4.34077 19.5009 4.59078 20.6499 5.45405 21.5071C6.13306 22.1813 6.99081 22.4762 8.03292 22.6153C9.04244 22.75 10.3299 22.75 11.9445 22.75H12.0555C13.6701 22.75 14.9576 22.75 15.9671 22.6153C17.0092 22.4762 17.867 22.1813 18.546 21.5071C19.4093 20.6499 19.6593 19.5009 19.7486 18.046Z" fill="#39BADF"/>
<path d="M11 18.25C10.5858 18.25 10.25 18.5858 10.25 19C10.25 19.4142 10.5858 19.75 11 19.75H13C13.4142 19.75 13.75 19.4142 13.75 19C13.75 18.5858 13.4142 18.25 13 18.25H11Z" fill="#39BADF"/>
<path d="M16.9787 8.4608C16.6809 8.74871 16.6729 9.22352 16.9608 9.52131L18.494 11.1071C18.8308 11.4555 19.0303 11.6641 19.1547 11.8328C19.2117 11.91 19.2347 11.9554 19.244 11.9785C19.2505 11.9947 19.2501 11.9989 19.25 11.9998C19.2501 12.0008 19.2505 12.0053 19.244 12.0215C19.2347 12.0446 19.2117 12.09 19.1547 12.1672C19.0303 12.3359 18.8308 12.5445 18.494 12.8929L16.9608 14.4787C16.6729 14.7765 16.6809 15.2513 16.9787 15.5392C17.2765 15.8271 17.7513 15.8191 18.0392 15.5213L19.603 13.9038C19.8989 13.5979 20.1706 13.3169 20.3618 13.0577C20.5732 12.7712 20.75 12.4294 20.75 12C20.75 11.5706 20.5732 11.2288 20.3618 10.9423C20.1706 10.6831 19.8989 10.4021 19.6031 10.0962L18.0392 8.47869C17.7513 8.1809 17.2765 8.17289 16.9787 8.4608Z" fill="#39BADF"/>
<path d="M7.0392 9.52131C7.32711 9.22352 7.3191 8.74871 7.02131 8.4608C6.72352 8.17289 6.24871 8.1809 5.9608 8.47869L4.39695 10.0962C4.10109 10.4021 3.82938 10.6831 3.63815 10.9423C3.42684 11.2288 3.25 11.5706 3.25 12C3.25 12.4294 3.42684 12.7712 3.63815 13.0577C3.82938 13.3169 4.10109 13.5979 4.39696 13.9038L5.9608 15.5213C6.24871 15.8191 6.72352 15.8271 7.02131 15.5392C7.3191 15.2513 7.32711 14.7765 7.0392 14.4787L5.50602 12.8929C5.16919 12.5445 4.96971 12.3359 4.84526 12.1672C4.78833 12.09 4.76531 12.0446 4.75602 12.0215C4.74949 12.0053 4.7499 12.0011 4.74999 12.0002C4.7499 11.9992 4.74949 11.9947 4.75602 11.9785C4.76531 11.9554 4.78833 11.91 4.84526 11.8328C4.96971 11.6641 5.16919 11.4555 5.50602 11.1071L7.0392 9.52131Z" fill="#39BADF"/>
</svg>
