<svg width="24" height="24" viewBox="0 0 24 24" fill="none" xmlns="http://www.w3.org/2000/svg">
<path opacity="0.4" d="M14.1057 16.311C16.3656 13.6916 18.5472 11.9146 21.2876 9.39818C22.1078 8.64496 22.2345 7.3247 21.591 6.3893C20.9072 5.39517 19.6077 5.19647 18.7282 5.98679C16.218 8.24236 14.2651 10.4141 12.4126 12.7354C12.3154 12.8572 12.2668 12.9181 12.2163 12.9524C12.0884 13.0393 11.9285 13.0403 11.7998 12.9548C11.749 12.9211 11.7003 12.8613 11.6029 12.7419L10.6158 11.5311C9.71508 10.4263 8.09956 10.5486 7.34754 11.7785C6.82128 12.6392 6.89927 13.7798 7.53675 14.5458L9.0847 16.4061C10.2425 17.7974 10.8214 18.4931 11.5164 18.5C12.2114 18.5068 12.8428 17.7748 14.1057 16.311Z" fill="#39BADF"/>
<path fill-rule="evenodd" clip-rule="evenodd" d="M22.209 5.96525C21.2907 4.63016 19.4715 4.31168 18.227 5.42993C15.7601 7.64659 13.8243 9.78337 12.0036 12.0474L11.1972 11.0582C9.96106 9.54199 7.72231 9.72901 6.70776 11.3882C6.0168 12.5183 6.11405 14.0096 6.96033 15.0266L8.54175 16.927C9.09209 17.5884 9.55215 18.1413 9.96444 18.5234C10.3904 18.918 10.8832 19.2448 11.5091 19.2509C12.1468 19.2572 12.6593 18.915 13.102 18.5135C13.5389 18.1173 14.0373 17.5396 14.6404 16.8405L14.6737 16.8019C16.3675 14.8386 18.0042 13.3689 19.9161 11.6522C20.5122 11.1169 21.1352 10.5574 21.7949 9.9516C22.9037 8.93348 23.0539 7.19349 22.209 5.96525ZM19.2296 6.54566C19.7441 6.08327 20.5239 6.1622 20.9732 6.81537C21.4152 7.45791 21.3121 8.35846 20.7804 8.84676C20.1496 9.42603 19.5441 9.96961 18.9572 10.4964C17.0276 12.2288 15.2998 13.7799 13.538 15.8221C12.8931 16.5695 12.4546 17.0757 12.0943 17.4024C11.7318 17.7312 11.5811 17.7516 11.5238 17.751C11.4548 17.7503 11.3107 17.7258 10.9839 17.4231C10.6519 17.1154 10.2539 16.6395 9.6613 15.9274L8.11334 14.0671C7.68467 13.552 7.62594 12.762 7.98749 12.1707C8.47699 11.3702 9.46927 11.3126 10.0346 12.006L11.0217 13.2168L11.0417 13.2416C11.1079 13.3243 11.232 13.479 11.3851 13.5806C11.768 13.8348 12.2584 13.8317 12.638 13.5737C12.7398 13.5045 12.8132 13.4264 12.8597 13.3735C12.9028 13.3247 12.9495 13.2662 12.9916 13.2134L12.9989 13.2042C14.8314 10.9081 16.7563 8.7681 19.2296 6.54566Z" fill="#39BADF"/>
<path d="M15.1303 4.78917C14.3774 4.65646 13.5879 4.86903 12.9711 5.4353C12.0374 6.29253 11.181 7.13831 10.3781 7.98488C10.0931 8.28543 10.1056 8.76013 10.4062 9.04517C10.7067 9.3302 11.1814 9.31762 11.4665 9.01708C12.2458 8.19534 13.0776 7.37383 13.9856 6.54023C14.2573 6.29078 14.5751 6.21444 14.8699 6.2664C15.2778 6.3383 15.6668 6.06591 15.7387 5.65798C15.8106 5.25006 15.5382 4.86108 15.1303 4.78917Z" fill="#39BADF"/>
<path d="M2.98378 12.1646C3.37248 11.515 4.05888 11.3821 4.56919 11.6684C4.93044 11.871 5.38758 11.7425 5.59025 11.3812C5.79291 11.02 5.66436 10.5628 5.30311 10.3602C4.05477 9.65983 2.48458 10.0777 1.69665 11.3943C1.02289 12.5202 1.11662 14.0047 1.94385 15.0204L3.49189 16.9213C4.03022 17.5823 4.48065 18.1355 4.88452 18.5178C5.3006 18.9118 5.78836 19.2446 6.41271 19.2509C6.96685 19.2564 7.42118 18.9924 7.80835 18.6675C8.12563 18.4012 8.16697 17.9281 7.90068 17.6108C7.63439 17.2936 7.16132 17.2522 6.84404 17.5185C6.57653 17.743 6.46394 17.7513 6.42774 17.751C6.37192 17.7504 6.23632 17.732 5.91579 17.4286C5.5913 17.1214 5.20203 16.6458 4.6219 15.9334L3.10694 14.0732C2.68638 13.5568 2.62746 12.76 2.98378 12.1646Z" fill="#39BADF"/>
</svg>
