<svg width="24" height="24" viewBox="0 0 24 24" fill="none" xmlns="http://www.w3.org/2000/svg">
<path opacity="0.4" fill-rule="evenodd" clip-rule="evenodd" d="M18.6831 19.439C20.7194 17.6084 22 14.9537 22 12C22 6.47715 17.5228 2 12 2C6.47715 2 2 6.47715 2 12C2 14.9484 3.27596 17.5987 5.3058 19.429L6.06067 18.0193C6.95088 16.4614 8.6076 15.5 10.4019 15.5H13.5987C15.3929 15.5 17.0497 16.4614 17.9399 18.0193L18.6831 19.439ZM12 12.2505C13.5188 12.2505 14.75 11.0193 14.75 9.50049C14.75 7.98171 13.5188 6.75049 12 6.75049C10.4812 6.75049 9.25 7.98171 9.25 9.50049C9.25 11.0193 10.4812 12.2505 12 12.2505Z" fill="#39BADF"/>
<path fill-rule="evenodd" clip-rule="evenodd" d="M8.5 9.5C8.5 7.567 10.067 6 12 6C13.933 6 15.5 7.567 15.5 9.5C15.5 11.433 13.933 13 12 13C10.067 13 8.5 11.433 8.5 9.5ZM12 7.5C10.8954 7.5 10 8.39543 10 9.5C10 10.6046 10.8954 11.5 12 11.5C13.1046 11.5 14 10.6046 14 9.5C14 8.39543 13.1046 7.5 12 7.5Z" fill="#39BADF"/>
<path fill-rule="evenodd" clip-rule="evenodd" d="M1.25 12C1.25 6.06294 6.06294 1.25 12 1.25C17.9371 1.25 22.75 6.06294 22.75 12C22.75 17.9371 17.9371 22.75 12 22.75C6.06294 22.75 1.25 17.9371 1.25 12ZM12 2.75C6.89137 2.75 2.75 6.89137 2.75 12C2.75 14.3715 3.64241 16.5345 5.10971 18.1716L5.40934 17.6472C6.43309 15.8556 8.33831 14.75 10.4017 14.75H13.5985C15.6619 14.75 17.5672 15.8556 18.5909 17.6472L18.8904 18.1714C20.3577 16.5343 21.25 14.3714 21.25 12C21.25 6.89137 17.1086 2.75 12 2.75ZM17.7685 19.2314L17.2885 18.3914C16.5319 17.0672 15.1237 16.25 13.5985 16.25H10.4017C8.8766 16.25 7.46839 17.0672 6.71171 18.3914L6.23164 19.2315C7.81325 20.4948 9.81843 21.25 12 21.25C14.1817 21.25 16.1869 20.4947 17.7685 19.2314Z" fill="#39BADF"/>
</svg>
