<svg width="20" height="20" viewBox="0 0 20 20" fill="none" xmlns="http://www.w3.org/2000/svg">
<path d="M11.0417 3.33335C11.0417 2.75806 10.5753 2.29169 10 2.29169C9.42472 2.29169 8.95835 2.75806 8.95835 3.33335V8.95835H3.33335C2.75806 8.95835 2.29169 9.42472 2.29169 10C2.29169 10.5753 2.75806 11.0417 3.33335 11.0417H8.95835V16.6667C8.95835 17.242 9.42472 17.7084 10 17.7084C10.5753 17.7084 11.0417 17.242 11.0417 16.6667V11.0417H16.6667C17.242 11.0417 17.7084 10.5753 17.7084 10C17.7084 9.42472 17.242 8.95835 16.6667 8.95835H11.0417V3.33335Z" fill="#39BADF"/>
</svg>
