<svg width="40" height="40" viewBox="0 0 40 40" fill="none" xmlns="http://www.w3.org/2000/svg">
<path opacity="0.4" d="M5.99805 7.79492C3.67971 10.1133 3.67969 13.8466 3.67969 21.3099C3.67969 22.5382 3.67962 23.6649 3.68962 24.7016H4.51139C5.07473 24.6649 5.63975 24.6465 6.20475 24.6482C10.9631 24.5549 15.6047 25.9315 19.3031 28.5332L22.0597 30.3182C24.5014 28.3715 27.1013 27.3749 29.7246 27.3866C31.5646 27.3866 33.3964 27.8849 35.1698 28.8699C35.3381 26.8865 35.3381 24.4232 35.3381 21.3099C35.3381 13.8466 35.338 10.1133 33.0197 7.79492C30.7014 5.47659 26.9696 5.47656 19.508 5.47656C12.0463 5.47656 8.31638 5.47659 5.99805 7.79492Z" fill="#1F1F1F" fill-opacity="0.6"/>
<path d="M30.3377 18.3936C29.6477 18.3936 29.0877 17.8336 29.0877 17.1436V11.6935L23.6644 11.7035C22.9744 11.7035 22.4144 11.1452 22.4128 10.4552C22.4128 9.76524 22.9695 9.20353 23.6611 9.20353L29.0877 9.19352V3.79688C29.0877 3.10688 29.6477 2.54688 30.3377 2.54688C31.0277 2.54688 31.5877 3.10688 31.5877 3.79688V9.18856L37.0094 9.17855C37.6994 9.17855 38.2594 9.73684 38.2611 10.4268C38.2611 11.1168 37.7044 11.6785 37.0127 11.6785L31.5877 11.6886V17.1436C31.5877 17.8336 31.0277 18.3936 30.3377 18.3936Z" fill="#1F1F1F" fill-opacity="0.6"/>
<path fill-rule="evenodd" clip-rule="evenodd" d="M24.1181 37.4041C24.1221 37.4194 24.1261 37.4348 24.13 37.4501L24.3273 37.3975C28.6349 37.2552 31.2522 36.7267 33.2139 34.7651C34.8616 33.1184 35.4981 31.0079 35.7441 27.8204L35.8994 27.5134C35.8565 27.4917 35.8136 27.4703 35.7707 27.449C35.8989 25.5151 35.8989 23.1966 35.8989 20.3667V19.5334C35.8989 18.8434 35.3389 18.2834 34.6489 18.2834C33.9589 18.2834 33.3989 18.8434 33.3989 19.5334V20.3667C33.3989 22.7898 33.3989 24.8019 33.3217 26.4787C32.0046 26.0842 30.6692 25.8851 29.3294 25.8851H29.2659C26.5754 25.8851 23.9539 26.6567 21.4496 28.1812C20.9042 27.6553 20.3251 27.1592 19.715 26.6968C16.0667 23.9318 11.48 22.4601 6.78662 22.5584C5.94032 22.5558 5.08809 22.6029 4.24522 22.6966C4.24219 21.9654 4.24219 21.1898 4.24219 20.3668C4.24219 13.2568 4.24219 9.68669 6.19385 7.73503C8.14717 5.78337 11.7138 5.78337 18.8204 5.78337C19.5104 5.78337 20.0705 5.22337 20.0705 4.53337C20.0705 3.84337 19.5105 3.28337 18.8205 3.28337C11.0256 3.28337 7.11222 3.28337 4.42725 5.96834C1.74225 8.65168 1.74219 12.5684 1.74219 20.3667C1.74219 28.165 1.74225 32.0801 4.42725 34.7651C7.11056 37.45 11.0237 37.45 18.8203 37.45C20.8286 37.45 22.5797 37.45 24.1181 37.4041ZM25.9001 34.8162C28.5768 34.623 30.2935 34.1512 31.4473 32.9984C32.3547 32.0909 32.8402 30.8336 33.1 29.0333C31.8523 28.6025 30.588 28.3851 29.3244 28.3851H29.2726C27.1927 28.3851 25.1476 28.951 23.1656 30.072C24.3123 31.5193 25.2369 33.12 25.9001 34.8162ZM23.233 34.9254C21.9378 34.95 20.4751 34.95 18.8205 34.95C11.7139 34.95 8.14551 34.95 6.19385 32.9984C4.74741 31.5507 4.37297 29.2159 4.27604 25.2098C5.11047 25.1082 5.95647 25.0613 6.79508 25.0584H6.82503C10.9634 24.9734 15.0001 26.2601 18.2051 28.6901C20.4003 30.3534 22.1299 32.5112 23.233 34.9254Z" fill="#1F1F1F" fill-opacity="0.6"/>
</svg>
