<svg width="40" height="40" viewBox="0 0 40 40" fill="none" xmlns="http://www.w3.org/2000/svg">
<path fill-rule="evenodd" clip-rule="evenodd" d="M17.27 3.35832C19.044 2.76943 20.9559 2.76943 22.73 3.35832C24.4968 3.94478 25.884 5.33567 27.2775 7.2899C28.6665 9.23766 30.2013 11.9534 32.1797 15.4541L32.2574 15.5916C34.2361 19.0929 35.7708 21.8085 36.7272 24.0108C37.6883 26.2238 38.167 28.1346 37.7851 29.9702C37.4005 31.8184 36.4523 33.4991 35.0713 34.7695C33.6937 36.0367 31.8179 36.5712 29.456 36.828C27.1074 37.0833 24.0353 37.0833 20.0812 37.0833H19.9187C15.9647 37.0833 12.8925 37.0833 10.544 36.828C8.18209 36.5712 6.30629 36.0367 4.92868 34.7695C3.54768 33.4991 2.59945 31.8184 2.2149 29.9702C1.83298 28.1346 2.31165 26.2238 3.27274 24.0108C4.22917 21.8085 5.7639 19.0928 7.74261 15.5916L7.82028 15.4542C9.79866 11.9534 11.3334 9.23766 12.7224 7.2899C14.116 5.33567 15.5032 3.94478 17.27 3.35832ZM19.4698 18.3787C19.8815 18.4341 20.4511 18.5823 20.9344 19.0656C21.4177 19.5489 21.5659 20.1185 21.6213 20.5302C21.6671 20.8713 21.6669 21.2679 21.6667 21.6011L21.6666 28.3334C21.6666 29.2539 20.9205 30 20 30C19.0795 30 18.3333 29.2539 18.3333 28.3334V21.6667C17.4128 21.6667 16.6666 20.9205 16.6666 20C16.6666 19.0796 17.4128 18.3334 18.3333 18.3334L18.399 18.3334C18.7321 18.3331 19.1287 18.3329 19.4698 18.3787ZM19.9924 11.6667C19.076 11.6667 18.3332 12.4128 18.3332 13.3333C18.3332 14.2538 19.076 15 19.9924 15H20.0073C20.9236 15 21.6665 14.2538 21.6665 13.3333C21.6665 12.4128 20.9236 11.6667 20.0073 11.6667H19.9924Z" fill="#F4505C"/>
</svg>
