<svg width="24" height="24" viewBox="0 0 24 24" fill="none" xmlns="http://www.w3.org/2000/svg">
<path d="M15.4447 6.60379C15.2833 6.72568 14.8016 7.08959 14.5239 7.30631C13.9677 7.74039 13.2286 8.3335 12.4917 8.9733C11.7511 9.61635 11.0298 10.2919 10.4995 10.892C10.2337 11.1929 10.0316 11.4572 9.90013 11.6753C9.77645 11.8805 9.75073 12.0017 9.75073 12.0017C9.75073 12.0017 9.77645 12.1193 9.90012 12.3245C10.0316 12.5426 10.2337 12.8069 10.4995 13.1078C11.0298 13.7079 11.7511 14.3835 12.4917 15.0265C13.2286 15.6663 13.9677 16.2594 14.5239 16.6935C14.8016 16.9102 15.2827 17.2736 15.4441 17.3955C15.7776 17.6411 15.8495 18.1111 15.6039 18.4447C15.3583 18.7782 14.8888 18.8494 14.5552 18.6038L14.5527 18.6019C14.3834 18.474 13.8844 18.0971 13.6011 17.876C13.0323 17.4321 12.2714 16.8217 11.5083 16.1591C10.7489 15.4998 9.97021 14.7742 9.37546 14.101C9.07884 13.7653 8.81212 13.425 8.6155 13.0989C8.43128 12.7933 8.25 12.4064 8.25 11.9999C8.25 11.5934 8.43129 11.2065 8.6155 10.9009C8.81213 10.5748 9.07884 10.2345 9.37546 9.89876C9.97021 9.22565 10.7489 8.49998 11.5083 7.84066C12.2714 7.1781 13.0323 6.56767 13.601 6.1238C13.8846 5.90251 14.3836 5.52558 14.5525 5.39801L14.5547 5.39636C14.8882 5.15072 15.3582 5.22162 15.6038 5.55514C15.8495 5.88865 15.7782 6.35815 15.4447 6.60379Z" fill="white"/>
</svg>
