<svg width="16" height="16" viewBox="0 0 16 16" fill="none" xmlns="http://www.w3.org/2000/svg">
<path d="M4.40299 5.70495C4.48425 5.81253 4.72685 6.1337 4.87134 6.31884C5.16072 6.68965 5.55613 7.18237 5.98266 7.67363C6.41136 8.16738 6.8617 8.64824 7.26177 9.00174C7.46238 9.17899 7.63861 9.31368 7.78403 9.40134C7.9208 9.48379 8.00159 9.50094 8.00159 9.50094C8.00159 9.50094 8.08 9.48379 8.21676 9.40135C8.36218 9.31368 8.53841 9.17899 8.73901 9.00174C9.13909 8.64824 9.58943 8.16738 10.0181 7.67363C10.4447 7.18236 10.8401 6.68963 11.1294 6.31881C11.2739 6.13367 11.5162 5.81296 11.5975 5.70538C11.7612 5.48303 12.0746 5.43507 12.2969 5.59883C12.5192 5.76258 12.5667 6.07558 12.403 6.29793L12.4017 6.29963C12.3165 6.41246 12.0652 6.74514 11.9178 6.93404C11.6219 7.31323 11.2149 7.8205 10.7732 8.32923C10.3337 8.83549 9.8499 9.35462 9.40115 9.75112C9.17735 9.94887 8.95049 10.1267 8.73305 10.2578C8.52933 10.3806 8.2714 10.5014 8.00039 10.5014C7.72939 10.5014 7.47146 10.3806 7.26774 10.2578C7.0503 10.1267 6.82344 9.94887 6.59964 9.75112C6.15089 9.35462 5.66711 8.83549 5.22757 8.32925C4.78586 7.82052 4.37891 7.31325 4.08299 6.93407C3.93547 6.74503 3.68418 6.41234 3.59913 6.29974L3.59803 6.29828C3.43428 6.07594 3.48154 5.76262 3.70389 5.59886C3.92623 5.43511 4.23923 5.48262 4.40299 5.70495Z" fill="#1F1F1F" fill-opacity="0.87"/>
</svg>
