<svg width="6" height="10" viewBox="0 0 6 10" fill="none" xmlns="http://www.w3.org/2000/svg">
<path d="M0.315974 8.1599C0.423556 8.07864 0.744719 7.83604 0.929859 7.69155C1.30067 7.40217 1.79339 7.00676 2.28466 6.58023C2.7784 6.15153 3.25926 5.70119 3.61276 5.30112C3.79001 5.10051 3.9247 4.92428 4.01237 4.77886C4.09481 4.6421 4.11196 4.56131 4.11196 4.56131C4.11196 4.56131 4.09481 4.48289 4.01237 4.34613C3.9247 4.20071 3.79002 4.02449 3.61276 3.82388C3.25926 3.4238 2.7784 2.97346 2.28465 2.54477C1.79338 2.11823 1.30065 1.72283 0.929836 1.43344C0.744694 1.28896 0.423985 1.04669 0.316402 0.965433C0.0940533 0.801678 0.0460958 0.488341 0.209851 0.265993C0.373606 0.0436441 0.686605 -0.00385523 0.908954 0.1599L0.910647 0.161179C1.02349 0.246405 1.35616 0.497672 1.54506 0.645093C1.92425 0.941011 2.43152 1.34796 2.94026 1.78967C3.44651 2.22921 3.96564 2.71299 4.36214 3.16174C4.55989 3.38554 4.7377 3.6124 4.86879 3.82984C4.9916 4.03356 5.11245 4.29149 5.11245 4.5625C5.11245 4.83351 4.99159 5.09143 4.86878 5.29515C4.7377 5.51259 4.55989 5.73945 4.36214 5.96325C3.96564 6.412 3.44651 6.89578 2.94027 7.33532C2.43154 7.77703 1.92427 8.18398 1.54509 8.4799C1.35606 8.62742 1.02337 8.87871 0.910762 8.96376L0.909306 8.96486C0.686958 9.12861 0.373641 9.08135 0.209885 8.859C0.0461341 8.63666 0.0936445 8.32366 0.315974 8.1599Z" fill="#1F1F1F" fill-opacity="0.87"/>
</svg>
