<svg width="24" height="24" viewBox="0 0 24 24" fill="none" xmlns="http://www.w3.org/2000/svg">
<path opacity="0.4" d="M10.3974 18.5859L9.63612 17.6194C8.40264 16.0536 7.7859 15.2707 8.06721 14.6354C8.34853 14 9.31191 14 11.2387 14H12.7613C14.6881 14 15.6515 14 15.9328 14.6354C16.2141 15.2707 15.5974 16.0536 14.3639 17.6194L13.6026 18.5858C12.8599 19.5286 12.4885 20 12 20C11.5115 20 11.1401 19.5286 10.3974 18.5859Z" fill="#1F1F1F" fill-opacity="0.6"/>
<path fill-rule="evenodd" clip-rule="evenodd" d="M11.2539 13.2549H11.2522C9.10693 13.2549 7.92385 13.2549 7.44943 14.3372C6.99579 15.3939 7.74138 16.3529 9.0933 18.0918L9.84228 19.0527C10.6607 20.1124 11.1558 20.7512 12.0024 20.7512C12.8489 20.7512 13.3441 20.1124 14.161 19.0541L14.9126 18.0906L14.9194 18.0818C16.2658 16.3482 17.0082 15.3921 16.5524 14.3312C16.081 13.2551 14.8983 13.2549 12.7539 13.2549L12.7539 4.00244C12.7539 3.58823 12.4181 3.25244 12.0039 3.25244C11.5897 3.25244 11.2539 3.58823 11.2539 4.00244L11.2539 13.2549ZM12.9858 18.1448C12.6159 18.6229 12.1621 19.2095 12.0053 19.2541H12.0039C11.8393 19.209 11.3752 18.6092 11.0031 18.1282C11.0016 18.1267 11.0016 18.1252 11.0016 18.1252L10.253 17.1646C9.52649 16.2311 8.70367 15.1715 8.80004 14.943C8.98832 14.7551 10.1907 14.7551 11.2507 14.7551H12.7511C13.8126 14.7551 15.0135 14.7551 15.1988 14.9355C15.2996 15.1715 14.4768 16.2297 13.7503 17.1631L12.9987 18.1282L12.9858 18.1448Z" fill="#1F1F1F" fill-opacity="0.6"/>
</svg>
