<svg width="24" height="24" viewBox="0 0 24 24" fill="none" xmlns="http://www.w3.org/2000/svg">
<path opacity="0.4" d="M13.6026 5.41415L14.3639 6.38058C15.5974 7.94638 16.2141 8.72928 15.9328 9.36464C15.6515 10 14.6881 10 12.7613 10H11.2387C9.31191 10 8.34853 10 8.06721 9.36464C7.7859 8.72928 8.40264 7.94638 9.63612 6.38059L10.3974 5.41415C11.1401 4.47138 11.5115 4 12 4C12.4885 4 12.8599 4.47138 13.6026 5.41415Z" fill="#1F1F1F" fill-opacity="0.6"/>
<path fill-rule="evenodd" clip-rule="evenodd" d="M12.75 10.7488H12.751C14.8963 10.7488 16.0794 10.7488 16.5538 9.66647C17.0074 8.60981 16.2619 7.65078 14.9099 5.91184L14.161 4.951C13.3426 3.89126 12.8474 3.25244 12.0009 3.25244C11.1543 3.25244 10.6591 3.8913 9.84225 4.94953L9.09059 5.91309L9.08379 5.92185C7.73748 7.65547 6.99502 8.61153 7.45088 9.67248C7.92228 10.7486 9.10517 10.7488 11.25 10.7488V20.0012C11.25 20.4154 11.5858 20.7512 12 20.7512C12.4142 20.7512 12.75 20.4154 12.75 20.0012V10.7488ZM11.0174 5.85888C11.3873 5.38078 11.8411 4.79417 11.9979 4.7496H11.9994C12.1639 4.79469 12.628 5.39449 13.0001 5.87551C13.0016 5.87701 13.0016 5.87844 13.0016 5.87844L13.7503 6.83906C14.4767 7.77253 15.2996 8.83216 15.2032 9.06065C15.0149 9.24854 13.8126 9.24854 12.7525 9.24854H11.2522C10.1907 9.24854 8.98978 9.24851 8.80446 9.06813C8.70365 8.83214 9.52647 7.774 10.2529 6.84053L11.0046 5.87551L11.0174 5.85888Z" fill="#1F1F1F" fill-opacity="0.6"/>
</svg>
