<svg width="16" height="16" viewBox="0 0 16 16" fill="none" xmlns="http://www.w3.org/2000/svg">
<path d="M5.70492 11.597C5.8125 11.5158 6.13367 11.2732 6.31881 11.1287C6.68962 10.8393 7.18234 10.4439 7.6736 10.0173C8.16735 9.58866 8.64821 9.13831 9.00171 8.73824C9.17896 8.53763 9.31365 8.36141 9.40131 8.21599C9.48376 8.07922 9.50091 7.99843 9.50091 7.99843C9.50091 7.99843 9.48376 7.92001 9.40132 7.78325C9.31365 7.63783 9.17896 7.46161 9.00171 7.261C8.64821 6.86093 8.16735 6.41059 7.6736 5.98189C7.18233 5.55536 6.6896 5.15995 6.31878 4.87057C6.13364 4.72608 5.81293 4.48381 5.70535 4.40256C5.483 4.2388 5.43504 3.92546 5.5988 3.70312C5.76255 3.48077 6.07555 3.43327 6.2979 3.59702L6.29959 3.5983C6.41243 3.68353 6.74511 3.9348 6.93401 4.08222C7.3132 4.37813 7.82047 4.78509 8.3292 5.22679C8.83545 5.66634 9.35459 6.15012 9.75109 6.59886C9.94884 6.82266 10.1266 7.04952 10.2577 7.26697C10.3805 7.47069 10.5014 7.72862 10.5014 7.99962C10.5014 8.27063 10.3805 8.52855 10.2577 8.73227C10.1266 8.94971 9.94884 9.17657 9.75109 9.40038C9.35459 9.84912 8.83546 10.3329 8.32922 10.7724C7.82049 11.2141 7.31322 11.6211 6.93404 11.917C6.745 12.0645 6.41231 12.3158 6.29971 12.4009L6.29825 12.402C6.07591 12.5657 5.76259 12.5185 5.59883 12.2961C5.43508 12.0738 5.48259 11.7608 5.70492 11.597Z" fill="#1F1F1F" fill-opacity="0.87"/>
</svg>
