<svg width="24" height="24" viewBox="0 0 24 24" fill="none" xmlns="http://www.w3.org/2000/svg">
<path opacity="0.4" d="M15.541 6.08277L14.2992 6.19566C12.2873 6.37855 11.2814 6.47 11.0447 7.12386C10.8079 7.77772 11.5222 8.49197 12.9507 9.92045L14.0795 11.0493C15.508 12.4778 16.2223 13.192 16.8761 12.9553C17.53 12.7186 17.6214 11.7126 17.8043 9.70077L17.9172 8.459C18.0273 7.24764 18.0824 6.64196 17.7202 6.27977C17.358 5.91758 16.7523 5.97264 15.541 6.08277Z" fill="#1F1F1F" fill-opacity="0.6"/>
<path fill-rule="evenodd" clip-rule="evenodd" d="M18.2494 5.74977C17.8807 5.38108 17.4208 5.27761 16.9861 5.25546C16.5842 5.23497 16.0848 5.28041 15.5228 5.33155L14.1684 5.45468C13.2151 5.5413 12.4163 5.61389 11.8306 5.75408C11.2446 5.89431 10.5931 6.16529 10.3383 6.86888C10.0836 7.57247 10.4107 8.19775 10.771 8.68059C11.1313 9.16329 11.6985 9.73043 12.3754 10.4073L12.4538 10.4857L5.46943 17.4701C5.17653 17.763 5.17653 18.2379 5.46943 18.5308C5.76232 18.8237 6.23719 18.8237 6.53009 18.5308L13.5145 11.5464L13.5919 11.6238C14.2688 12.3007 14.8359 12.8679 15.3186 13.2282C15.8015 13.5885 16.4267 13.9156 17.1303 13.6609C17.8339 13.4061 18.1049 12.7546 18.2451 12.1686C18.3853 11.5829 18.4579 10.7841 18.5445 9.83079L18.6676 8.47637C18.7188 7.91441 18.7642 7.41503 18.7437 7.0131C18.7216 6.57835 18.6181 6.11846 18.2494 5.74977ZM15.6078 6.83002C16.2364 6.77287 16.6275 6.73913 16.9097 6.75351C17.0417 6.76024 17.113 6.77661 17.1497 6.78941C17.1774 6.79903 17.1841 6.80579 17.1884 6.81003L17.1892 6.81084C17.1934 6.81506 17.2002 6.82178 17.2098 6.84945C17.2226 6.88625 17.239 6.9575 17.2457 7.08946C17.2601 7.37167 17.2263 7.76277 17.1692 8.39143L17.0563 9.6332C16.9625 10.6645 16.898 11.3527 16.7863 11.8195C16.7319 12.0469 16.6784 12.1644 16.6413 12.2214C16.6331 12.234 16.6268 12.2419 16.6229 12.2464L16.6196 12.2501L16.6147 12.2494C16.6087 12.2485 16.5988 12.2464 16.5845 12.242C16.5195 12.2219 16.4032 12.1659 16.2158 12.0261C15.8312 11.739 15.341 11.2516 14.6087 10.5193L13.4799 9.39045C12.7476 8.6582 12.2602 8.16804 11.9731 7.78342C11.8333 7.596 11.7773 7.47972 11.7572 7.41474C11.7527 7.40037 11.7507 7.39047 11.7498 7.38454L11.7491 7.37964L11.7527 7.3763C11.7573 7.37235 11.7652 7.36605 11.7778 7.35785C11.8348 7.32079 11.9523 7.26731 12.1797 7.21288C12.6465 7.10117 13.3347 7.03666 14.366 6.94291L15.6078 6.83002Z" fill="#1F1F1F" fill-opacity="0.6"/>
</svg>
