<svg width="20" height="20" viewBox="0 0 20 20" fill="none" xmlns="http://www.w3.org/2000/svg">
<path opacity="0.4" fill-rule="evenodd" clip-rule="evenodd" d="M2.54409 4.59406C1.66675 5.57812 1.66675 7.05208 1.66675 9.99998C1.66675 12.9479 1.66675 14.4218 2.54409 15.4059C2.68441 15.5633 2.83907 15.7088 3.0063 15.8409C4.05187 16.6666 5.61794 16.6666 8.75009 16.6666H11.2501C14.3822 16.6666 15.9483 16.6666 16.9939 15.8409C17.1611 15.7088 17.3158 15.5633 17.4561 15.4059C18.3334 14.4218 18.3334 12.9479 18.3334 9.99998C18.3334 7.05208 18.3334 5.57812 17.4561 4.59406C17.3158 4.43667 17.1611 4.29111 16.9939 4.15904C15.9483 3.33331 14.3822 3.33331 11.2501 3.33331H8.75009C5.61794 3.33331 4.05187 3.33331 3.0063 4.15904C2.83907 4.29111 2.68441 4.43667 2.54409 4.59406ZM10.0426 12.0833C11.1932 12.0833 12.1259 11.1506 12.1259 9.99998C12.1259 8.84939 11.1932 7.91665 10.0426 7.91665C8.89198 7.91665 7.95924 8.84939 7.95924 9.99998C7.95924 11.1506 8.89198 12.0833 10.0426 12.0833Z" fill="#18A3FF"/>
<path fill-rule="evenodd" clip-rule="evenodd" d="M10.0409 7.29165C8.54517 7.29165 7.33261 8.50421 7.33261 9.99998C7.33261 11.4958 8.54517 12.7083 10.0409 12.7083C11.5367 12.7083 12.7493 11.4958 12.7493 9.99998C12.7493 8.50421 11.5367 7.29165 10.0409 7.29165ZM8.58261 9.99998C8.58261 9.19456 9.23553 8.54165 10.0409 8.54165C10.8464 8.54165 11.4993 9.19456 11.4993 9.99998C11.4993 10.8054 10.8464 11.4583 10.0409 11.4583C9.23553 11.4583 8.58261 10.8054 8.58261 9.99998Z" fill="#18A3FF"/>
<path d="M16.2582 9.99998C16.2582 9.53974 15.8851 9.16665 15.4249 9.16665H15.4174C14.9572 9.16665 14.5841 9.53974 14.5841 9.99998C14.5841 10.4602 14.9572 10.8333 15.4174 10.8333H15.4249C15.8851 10.8333 16.2582 10.4602 16.2582 9.99998Z" fill="#18A3FF"/>
<path d="M4.58338 9.16665C5.04362 9.16665 5.41671 9.53974 5.41671 9.99998C5.41671 10.4602 5.04362 10.8333 4.58338 10.8333H4.5759C4.11566 10.8333 3.74256 10.4602 3.74256 9.99998C3.74256 9.53974 4.11566 9.16665 4.5759 9.16665H4.58338Z" fill="#18A3FF"/>
<path fill-rule="evenodd" clip-rule="evenodd" d="M11.2897 2.70831H8.71047C7.17796 2.70831 5.97439 2.7083 5.02557 2.81548C4.0571 2.92488 3.27175 3.153 2.61894 3.66855C2.42351 3.82289 2.24232 3.99336 2.07757 4.17814C1.52242 4.80082 1.27452 5.55556 1.15644 6.48152C1.04173 7.38104 1.04174 8.51935 1.04175 9.95603V10.0439C1.04174 11.4806 1.04173 12.6189 1.15644 13.5184C1.27452 14.4444 1.52242 15.1991 2.07757 15.8218C2.24232 16.0066 2.42351 16.1771 2.61894 16.3314C3.27175 16.847 4.0571 17.0751 5.02557 17.1845C5.97439 17.2917 7.17796 17.2917 8.71047 17.2916H11.2897C12.8222 17.2917 14.0258 17.2917 14.9746 17.1845C15.9431 17.0751 16.7284 16.847 17.3812 16.3314C17.5767 16.1771 17.7579 16.0066 17.9226 15.8218C18.4777 15.1991 18.7257 14.4444 18.8437 13.5184C18.9584 12.6189 18.9584 11.4806 18.9584 10.0439V9.95602C18.9584 8.51935 18.9584 7.38104 18.8437 6.48152C18.7257 5.55556 18.4777 4.80082 17.9226 4.17814C17.7579 3.99335 17.5767 3.82289 17.3812 3.66855C16.7284 3.153 15.9431 2.92488 14.9746 2.81548C14.0258 2.7083 12.8222 2.70831 11.2897 2.70831ZM3.39366 4.64953C3.78641 4.33936 4.30688 4.15461 5.16588 4.05758C6.03636 3.95925 7.16934 3.95831 8.75009 3.95831H11.2501C12.8308 3.95831 13.9638 3.95925 14.8343 4.05758C15.6933 4.15461 16.2138 4.33936 16.6065 4.64953C16.7455 4.75933 16.8737 4.87998 16.9896 5.00998C17.3118 5.37136 17.5025 5.84564 17.6038 6.63964C17.7072 7.45093 17.7084 8.50951 17.7084 9.99998C17.7084 11.4904 17.7072 12.549 17.6038 13.3603C17.5025 14.1543 17.3118 14.6286 16.9896 14.99C16.8737 15.12 16.7455 15.2406 16.6065 15.3504C16.2138 15.6606 15.6933 15.8453 14.8343 15.9424C13.9638 16.0407 12.8308 16.0416 11.2501 16.0416H8.75009C7.16934 16.0416 6.03636 16.0407 5.16588 15.9424C4.30688 15.8453 3.78641 15.6606 3.39366 15.3504C3.25463 15.2406 3.1265 15.12 3.0106 14.99C2.68841 14.6286 2.49765 14.1543 2.3964 13.3603C2.29294 12.549 2.29175 11.4904 2.29175 9.99998C2.29175 8.50951 2.29294 7.45093 2.3964 6.63964C2.49765 5.84564 2.68841 5.37136 3.0106 5.00998C3.1265 4.87998 3.25463 4.75933 3.39366 4.64953Z" fill="#18A3FF"/>
</svg>
