<svg width="24" height="24" viewBox="0 0 24 24" fill="none" xmlns="http://www.w3.org/2000/svg">
<path d="M16.1029 3.42414C14.8234 3.25213 13.135 3.25 10.7498 3.25H8.74976C8.19747 3.25 7.74976 2.80229 7.74976 2.25C7.74976 1.69772 8.19747 1.25 8.74976 1.25H10.8246C13.1181 1.24998 14.9412 1.24996 16.3694 1.44198C17.8418 1.63994 19.0434 2.05836 19.9924 3.00736C20.9414 3.95636 21.3598 5.15794 21.5578 6.6304C21.7498 8.05858 21.7498 9.88165 21.7498 12.1752V18.25C21.7498 18.8023 21.302 19.25 20.7498 19.25C20.1975 19.25 19.7498 18.8023 19.7498 18.25V12.25C19.7498 9.86471 19.7476 8.17634 19.5756 6.89689C19.4075 5.64621 19.0936 4.93704 18.5782 4.42157C18.0627 3.90611 17.3535 3.59229 16.1029 3.42414Z" fill="white"/>
<path d="M10.4423 4.25H10.5573C12.2763 4.24998 13.6447 4.24997 14.7172 4.39815C15.8254 4.55126 16.7281 4.87517 17.439 5.6057C18.147 6.33336 18.4585 7.25268 18.6062 8.38161C18.7498 9.47969 18.7498 10.8825 18.7498 12.6526V18.0459C18.7498 19.1448 18.7498 20.0525 18.6516 20.7335C18.5515 21.4271 18.3194 22.1206 17.6465 22.504C17.0339 22.8529 16.3601 22.7793 15.8023 22.5987C15.2395 22.4164 14.6715 22.0873 14.1562 21.74C13.6351 21.3887 13.1245 20.9886 12.6818 20.6396L12.6315 20.5999C12.196 20.2565 11.8491 19.983 11.5851 19.8135C11.2094 19.5721 10.9759 19.4233 10.7878 19.3288C10.6154 19.2421 10.5426 19.234 10.4998 19.234C10.457 19.234 10.3842 19.2421 10.2118 19.3288C10.0237 19.4233 9.79021 19.5721 9.41446 19.8135C9.15083 19.9828 8.80436 20.2559 8.36964 20.5987L8.31773 20.6396C7.87509 20.9886 7.3645 21.3887 6.84337 21.74C6.32806 22.0873 5.7601 22.4164 5.19728 22.5987C4.63951 22.7793 3.96567 22.8529 3.35311 22.504C2.68012 22.1206 2.44802 21.4271 2.34801 20.7335C2.2497 20.0518 2.24973 19.143 2.24976 18.0427V12.6526C2.24975 10.8826 2.24974 9.47968 2.39339 8.38161C2.54109 7.25268 2.85252 6.33336 3.5606 5.6057C4.27145 4.87517 5.1742 4.55126 6.28234 4.39815C7.35484 4.24997 8.72331 4.24998 10.4423 4.25Z" fill="white"/>
</svg>
