<svg width="11" height="11" viewBox="0 0 11 11" fill="none" xmlns="http://www.w3.org/2000/svg">
<path opacity="0.4" d="M9.875 5.75338V5.49662C9.875 4.63192 9.875 3.93882 9.83586 3.375H0.414142C0.375 3.93882 0.375 4.63192 0.375 5.49662V5.75338C0.375 7.93203 0.375 9.02136 1.00106 9.69818C1.62712 10.375 2.63475 10.375 4.65 10.375H5.6C7.61525 10.375 8.62288 10.375 9.24894 9.69818C9.875 9.02136 9.875 7.93203 9.875 5.75338Z" fill="#1F1F1F" fill-opacity="0.6"/>
<path fill-rule="evenodd" clip-rule="evenodd" d="M2.125 0C2.33211 0 2.5 0.167893 2.5 0.375V0.557947C3.06803 0.499985 3.76701 0.499992 4.61962 0.5H5.63038C6.48299 0.499992 7.18197 0.499985 7.75 0.557947V0.375C7.75 0.167893 7.91789 0 8.125 0C8.33211 0 8.5 0.167893 8.5 0.375V0.692394C8.90238 0.80644 9.24175 0.991799 9.52423 1.29718C9.91318 1.71767 10.0861 2.24896 10.1689 2.91475C10.25 3.56716 10.25 4.40324 10.25 5.47003V5.77997C10.25 6.84676 10.25 7.68285 10.1689 8.33525C10.0861 9.00104 9.91318 9.53233 9.52423 9.95282C9.13143 10.3775 8.62862 10.57 7.99936 10.6615C7.39034 10.75 6.61223 10.75 5.63038 10.75H4.61962C3.63777 10.75 2.85966 10.75 2.25064 10.6615C1.62138 10.57 1.11857 10.3775 0.725772 9.95282C0.336817 9.53233 0.163925 9.00104 0.0811244 8.33525C-9.71556e-06 7.68285 -5.36268e-06 6.84677 8.91573e-08 5.77998V5.47002C-5.36268e-06 4.40323 -9.71556e-06 3.56715 0.0811244 2.91475C0.163925 2.24896 0.336817 1.71767 0.725772 1.29718C1.00825 0.991799 1.34762 0.80644 1.75 0.692394V0.375C1.75 0.167893 1.91789 0 2.125 0ZM2.125 1.75C1.95358 1.75 1.80903 1.63499 1.7643 1.47792C1.56065 1.55895 1.40602 1.66628 1.27635 1.80646C1.04022 2.06173 0.900262 2.41168 0.826306 3H9.42369C9.34974 2.41168 9.20978 2.06173 8.97365 1.80646C8.84398 1.66628 8.68935 1.55896 8.4857 1.47792C8.44097 1.63499 8.29642 1.75 8.125 1.75C7.91789 1.75 7.75 1.58211 7.75 1.375V1.31229C7.2195 1.25078 6.53381 1.25 5.6 1.25H4.65C3.71619 1.25 3.0305 1.25078 2.5 1.31229V1.375C2.5 1.58211 2.33211 1.75 2.125 1.75ZM9.48054 3.75H0.769461C0.750274 4.22845 0.75 4.8004 0.75 5.49662V5.75338C0.75 6.85253 0.750683 7.64197 0.825391 8.24269C0.899106 8.83542 1.03924 9.18721 1.27635 9.44354C1.50961 9.69571 1.82364 9.84155 2.35852 9.9193C2.90738 9.99907 3.63094 10 4.65 10H5.6C6.61906 10 7.34262 9.99907 7.89148 9.9193C8.42636 9.84155 8.74039 9.69571 8.97365 9.44354C9.21076 9.18721 9.35089 8.83542 9.42461 8.24269C9.49932 7.64197 9.5 6.85253 9.5 5.75338V5.49662C9.5 4.8004 9.49973 4.22845 9.48054 3.75Z" fill="#1F1F1F" fill-opacity="0.6"/>
</svg>
