<svg width="24" height="24" viewBox="0 0 24 24" fill="none" xmlns="http://www.w3.org/2000/svg">
<path opacity="0.4" d="M19.866 12.099C19.954 11.619 20 11.119 20 10.609C20 5.85898 15.97 1.99902 11 1.99902C6.03 1.99902 2 5.85898 2 10.609C2 12.889 2.93002 14.969 4.44702 16.509C4.78102 16.849 5.00401 17.3091 4.91401 17.7891C4.76501 18.5691 4.42899 19.299 3.93599 19.899C5.23299 20.139 6.58101 19.929 7.73701 19.309C8.14601 19.099 8.35102 18.989 8.49502 18.959C8.63902 18.939 8.84598 18.979 9.25898 19.059C9.83298 19.169 10.416 19.219 11 19.219C11.311 19.219 11.617 19.209 11.92 19.179C11.339 18.339 11 17.339 11 16.259C11 13.359 13.463 10.999 16.5 10.999C17.768 10.999 18.935 11.409 19.866 12.099Z" fill="#39BADF"/>
<path d="M3.81802 20.637C4.21502 20.71 4.61599 20.746 5.01699 20.746L5.01802 20.7471C6.10002 20.7471 7.17601 20.4851 8.13501 19.9761L8.23398 19.925L8.26221 19.9106C8.42408 19.8283 8.58602 19.7458 8.67202 19.709C8.70802 19.713 8.76801 19.72 8.86201 19.738C9.26901 19.814 9.66099 19.5461 9.73799 19.1391C9.81399 18.7321 9.54601 18.34 9.13901 18.263C8.86001 18.211 8.66298 18.1961 8.47998 18.2141C8.45398 18.2171 8.42698 18.2211 8.40098 18.2261C8.16998 18.2741 7.96398 18.3791 7.55298 18.5891L7.44902 18.642L7.43799 18.648C6.76299 19.007 6.013 19.208 5.252 19.242C5.447 18.828 5.591 18.387 5.679 17.929C5.806 17.254 5.55998 16.545 5.00298 15.982C3.55098 14.522 2.752 12.615 2.752 10.611C2.752 6.27704 6.48801 2.75107 11.081 2.75107C15.085 2.75107 18.527 5.44107 19.266 9.14707C19.347 9.55307 19.741 9.81503 20.148 9.73604C20.554 9.65504 20.818 9.26 20.737 8.854C19.859 4.448 15.798 1.25 11.08 1.25C5.65998 1.25 1.25098 5.44906 1.25098 10.6101C1.25098 13.0121 2.20499 15.296 3.93599 17.037C4.03299 17.135 4.252 17.39 4.204 17.648C4.077 18.307 3.79098 18.92 3.37598 19.421C3.20598 19.626 3.15802 19.9061 3.24902 20.1561C3.33902 20.4061 3.55602 20.589 3.81802 20.637Z" fill="#39BADF"/>
<path fill-rule="evenodd" clip-rule="evenodd" d="M18.143 22.242C18.7679 22.5769 19.4657 22.7499 20.1675 22.75C20.4313 22.75 20.6952 22.725 20.956 22.6761C21.216 22.6271 21.43 22.4451 21.521 22.1971C21.611 21.9491 21.565 21.671 21.398 21.466C21.173 21.19 21.024 20.87 20.956 20.517C20.96 20.499 20.981 20.452 21.029 20.405L21.038 20.396C22.141 19.277 22.749 17.808 22.749 16.259C22.749 12.945 19.945 10.249 16.499 10.249C13.053 10.249 10.249 12.945 10.249 16.259C10.249 19.573 13.053 22.269 16.499 22.269C16.917 22.269 17.319 22.231 17.695 22.157C17.7105 22.1545 17.7256 22.1521 17.7403 22.1497C17.772 22.1446 17.8017 22.1398 17.829 22.1351C17.855 22.1311 17.885 22.1261 17.911 22.1221C17.955 22.1441 18.013 22.1741 18.066 22.2021L18.143 22.242ZM18.761 20.8721C18.52 20.7461 18.355 20.66 18.157 20.629C17.96 20.593 17.784 20.6221 17.582 20.6561C17.5507 20.6615 17.5164 20.667 17.4791 20.6729C17.4686 20.6746 17.458 20.6763 17.447 20.678C17.437 20.679 17.427 20.681 17.417 20.683C17.133 20.74 16.825 20.769 16.5 20.769C13.881 20.769 11.75 18.746 11.75 16.259C11.75 13.772 13.881 11.749 16.5 11.749C19.119 11.749 21.25 13.772 21.25 16.259C21.25 17.409 20.797 18.502 19.975 19.338C19.57 19.738 19.386 20.279 19.482 20.788C19.507 20.923 19.541 21.056 19.581 21.187C19.327 21.133 19.08 21.0421 18.849 20.9181C18.846 20.9161 18.84 20.913 18.84 20.913L18.761 20.8721Z" fill="#39BADF"/>
</svg>
