<svg width="20" height="20" viewBox="0 0 20 20" fill="none" xmlns="http://www.w3.org/2000/svg">
<circle opacity="0.4" cx="10.0001" cy="10" r="8.33333" fill="#1F1F1F" fill-opacity="0.6"/>
<path d="M10.6251 6.66669C10.6251 6.32151 10.3453 6.04169 10.0001 6.04169C9.6549 6.04169 9.37508 6.32151 9.37508 6.66669V10C9.37508 10.1658 9.44093 10.3248 9.55814 10.442L11.2248 12.1086C11.4689 12.3527 11.8646 12.3527 12.1087 12.1086C12.3528 11.8646 12.3528 11.4688 12.1087 11.2247L10.6251 9.74114V6.66669Z" fill="#1F1F1F" fill-opacity="0.6"/>
<path fill-rule="evenodd" clip-rule="evenodd" d="M10.0001 1.04169C5.05253 1.04169 1.04175 5.05247 1.04175 10C1.04175 14.9476 5.05253 18.9584 10.0001 18.9584C14.9476 18.9584 18.9584 14.9476 18.9584 10C18.9584 5.05247 14.9476 1.04169 10.0001 1.04169ZM2.29175 10C2.29175 5.74283 5.74289 2.29169 10.0001 2.29169C14.2573 2.29169 17.7084 5.74283 17.7084 10C17.7084 14.2572 14.2573 17.7084 10.0001 17.7084C5.74289 17.7084 2.29175 14.2572 2.29175 10Z" fill="#1F1F1F" fill-opacity="0.6"/>
</svg>
