<svg width="20" height="20" viewBox="0 0 20 20" fill="none" xmlns="http://www.w3.org/2000/svg">
<ellipse opacity="0.4" cx="9.99996" cy="9.99984" rx="8.33333" ry="8.33333" fill="#1F1F1F" fill-opacity="0.6"/>
<path d="M8.04498 2.55736C11.6423 1.59683 15.322 3.31402 16.949 6.4752L15.7554 6.54786C15.4109 6.56883 15.1486 6.86514 15.1696 7.20968C15.1906 7.55422 15.4869 7.81652 15.8314 7.79555L17.9232 7.6682C18.1215 7.65613 18.3022 7.55051 18.4101 7.38369C18.5179 7.21686 18.54 7.00869 18.4697 6.82292C16.8568 2.566 12.23 0.146107 7.72251 1.34967C2.9214 2.63162 0.0639514 7.54252 1.34941 12.3231C2.63463 17.1029 7.57168 19.9312 12.372 18.6494C15.9379 17.6973 18.4299 14.7444 18.9512 11.3309C19.0034 10.9897 18.769 10.6708 18.4278 10.6187C18.0865 10.5666 17.7677 10.801 17.7156 11.1422C17.267 14.0791 15.1219 16.6214 12.0495 17.4418C7.90911 18.5473 3.66104 16.1062 2.55653 11.9985C1.45225 7.89172 3.90539 3.66268 8.04498 2.55736Z" fill="#1F1F1F" fill-opacity="0.6"/>
<path d="M10.6251 6.66622C10.6251 6.32104 10.3453 6.04122 10.0001 6.04122C9.6549 6.04122 9.37508 6.32104 9.37508 6.66622V9.99955C9.37508 10.1653 9.44093 10.3243 9.55814 10.4415L11.2248 12.1082C11.4689 12.3522 11.8646 12.3522 12.1087 12.1082C12.3528 11.8641 12.3528 11.4684 12.1087 11.2243L10.6251 9.74067V6.66622Z" fill="#1F1F1F" fill-opacity="0.6"/>
</svg>
