<svg width="18" height="18" viewBox="0 0 18 18" fill="none" xmlns="http://www.w3.org/2000/svg">
<path opacity="0.4" d="M17.2917 8.95835C17.2917 4.35598 13.5607 0.625019 8.95833 0.625019C4.35596 0.625019 0.625 4.35598 0.625 8.95835C0.625 13.5607 4.35596 17.2917 8.95833 17.2917C13.5607 17.2917 17.2917 13.5607 17.2917 8.95835Z" fill="#1F1F1F" fill-opacity="0.6"/>
<path d="M6.9003 6.01642C6.65623 5.77232 6.26051 5.7723 6.01642 6.01637C5.77232 6.26043 5.7723 6.65616 6.01637 6.90025L8.0745 8.9586L6.0169 11.0164C5.77284 11.2605 5.77286 11.6562 6.01695 11.9003C6.26104 12.1444 6.65677 12.1443 6.90083 11.9003L8.95833 9.84253L11.0158 11.9003C11.2599 12.1443 11.6556 12.1444 11.8997 11.9003C12.1438 11.6562 12.1438 11.2605 11.8998 11.0164L9.84217 8.9586L11.9003 6.90025C12.1444 6.65616 12.1443 6.26043 11.9003 6.01637C11.6562 5.7723 11.2604 5.77232 11.0164 6.01642L8.95833 8.07467L6.9003 6.01642Z" fill="#1F1F1F" fill-opacity="0.6"/>
<path fill-rule="evenodd" clip-rule="evenodd" d="M8.95833 17.9167C4.01078 17.9167 0 13.9059 0 8.95833C0 4.01078 4.01078 0 8.95833 0C13.9059 0 17.9167 4.01078 17.9167 8.95833C17.9167 13.9059 13.9059 17.9167 8.95833 17.9167ZM1.25 8.95833C1.25 13.2155 4.70114 16.6667 8.95833 16.6667C13.2155 16.6667 16.6667 13.2155 16.6667 8.95833C16.6667 4.70114 13.2155 1.25 8.95833 1.25C4.70114 1.25 1.25 4.70114 1.25 8.95833Z" fill="#1F1F1F" fill-opacity="0.6"/>
</svg>
