<svg width="20" height="20" viewBox="0 0 20 20" fill="none" xmlns="http://www.w3.org/2000/svg">
<path opacity="0.4" d="M18.3334 10C18.3334 5.39763 14.6025 1.66667 10.0001 1.66667C5.39771 1.66667 1.66675 5.39763 1.66675 10C1.66675 14.6024 5.39771 18.3333 10.0001 18.3333C14.6025 18.3333 18.3334 14.6024 18.3334 10Z" fill="#1F1F1F" fill-opacity="0.6"/>
<path d="M7.94205 7.05808C7.69798 6.81399 7.30225 6.81397 7.05816 7.05803C6.81407 7.3021 6.81405 7.69782 7.05812 7.94192L9.11625 10.0003L7.05865 12.0581C6.81459 12.3022 6.81461 12.6979 7.0587 12.942C7.30279 13.186 7.69852 13.186 7.94258 12.9419L10.0001 10.8842L12.0576 12.9419C12.3016 13.186 12.6974 13.186 12.9415 12.942C13.1856 12.6979 13.1856 12.3022 12.9415 12.0581L10.8839 10.0003L12.942 7.94192C13.1861 7.69782 13.1861 7.3021 12.942 7.05803C12.6979 6.81397 12.3022 6.81399 12.0581 7.05808L10.0001 9.11633L7.94205 7.05808Z" fill="#1F1F1F" fill-opacity="0.6"/>
<path fill-rule="evenodd" clip-rule="evenodd" d="M10.0001 18.9583C5.05253 18.9583 1.04175 14.9475 1.04175 10C1.04175 5.05245 5.05253 1.04166 10.0001 1.04166C14.9476 1.04166 18.9584 5.05245 18.9584 10C18.9584 14.9475 14.9476 18.9583 10.0001 18.9583ZM2.29175 10C2.29175 14.2572 5.74289 17.7083 10.0001 17.7083C14.2573 17.7083 17.7084 14.2572 17.7084 10C17.7084 5.7428 14.2573 2.29166 10.0001 2.29166C5.74289 2.29166 2.29175 5.7428 2.29175 10Z" fill="#1F1F1F" fill-opacity="0.6"/>
</svg>
