<svg width="20" height="20" viewBox="0 0 36 36" fill="none" xmlns="http://www.w3.org/2000/svg">
<path d="M15.0851 23.0133C15.3134 23.22 15.6101 23.3317 15.9168 23.3317C15.9468 23.3317 15.9768 23.3301 16.0068 23.3284C16.3451 23.3034 16.6585 23.1434 16.8751 22.8851L23.8751 14.5517C24.3185 14.0234 24.2501 13.235 23.7218 12.79C23.1935 12.3467 22.4034 12.415 21.9601 12.9433L15.7885 20.29L13.7501 18.47C13.2351 18.01 12.4452 18.055 11.9852 18.57C11.5252 19.085 11.5701 19.8749 12.0851 20.3349L15.0851 23.0133Z" fill="#39BADF"/>
<path fill-rule="evenodd" clip-rule="evenodd" d="M13.6869 33.2503C14.7002 34.3402 16.0868 35.8317 17.9167 35.8317C19.7465 35.8317 21.1331 34.3402 22.1464 33.2503L22.1726 33.2222C22.3463 33.0358 22.5107 32.8594 22.6584 32.7118C23.58 31.7918 24.0283 31.605 25.33 31.605C25.5216 31.605 25.7273 31.6112 25.9394 31.6177L25.9617 31.6183C27.3267 31.6583 29.195 31.7117 30.4483 30.4701C31.7117 29.2167 31.6583 27.3351 31.6183 25.9618L31.6177 25.9395C31.6112 25.7273 31.605 25.5217 31.605 25.3301C31.605 24.0284 31.805 23.565 32.8 22.57C34.755 20.6167 35.8317 19.5383 35.8317 17.9167C35.8317 16.2951 34.7551 15.2185 32.8003 13.2636C31.8069 12.2686 31.605 11.8051 31.605 10.5034C31.605 10.3118 31.6112 10.1062 31.6177 9.89404L31.6183 9.87175C31.6583 8.49675 31.7117 6.61674 30.4483 5.36174C29.195 4.12007 27.3283 4.17338 25.9633 4.21338L25.9318 4.21433C25.7216 4.22066 25.5205 4.22673 25.33 4.22673C24.19 4.22673 23.4417 3.9034 22.57 3.03174C20.6167 1.07674 19.5383 0 17.9167 0C16.2951 0 15.2185 1.07663 13.2637 3.03143C12.392 3.9031 11.6433 4.22673 10.5033 4.22673C10.3114 4.22673 10.1087 4.22057 9.8982 4.21418L9.87166 4.21338C8.49666 4.17338 6.61499 4.12005 5.36165 5.38338C4.11999 6.63672 4.1733 8.50508 4.2133 9.86841L4.21425 9.90014C4.22059 10.1103 4.22664 10.3112 4.22664 10.5016C4.22664 11.6416 3.90332 12.3901 3.03166 13.2617C1.07666 15.2151 0 16.2934 0 17.915C0 19.5367 1.07665 20.6134 3.03165 22.5684C4.02498 23.5634 4.22664 24.0268 4.22664 25.3285C4.22664 25.52 4.22041 25.7254 4.21398 25.9375L4.2133 25.96C4.1733 27.3333 4.12001 29.2151 5.38501 30.4701C6.63834 31.7117 8.50666 31.6583 9.87166 31.6183L9.89396 31.6177C10.1061 31.6112 10.3117 31.605 10.5033 31.605C11.805 31.605 12.255 31.79 13.175 32.71C13.33 32.8666 13.5036 33.0519 13.6869 33.2503ZM14.9417 30.9417C13.5483 29.5517 12.47 29.105 10.5033 29.105L10.5 29.1034C10.2866 29.1034 10.0592 29.1095 9.8239 29.116L9.78558 29.117C8.8225 29.1436 7.63148 29.1765 7.14168 28.6917C6.64835 28.2001 6.68163 26.9967 6.70996 26.0283L6.7107 26.0012C6.71711 25.7658 6.72331 25.5385 6.72331 25.325C6.72331 23.3584 6.22834 22.2333 4.795 20.7983L4.77481 20.7781C3.35355 19.3552 2.49666 18.4974 2.49666 17.9118C2.49666 17.3235 3.36167 16.4584 4.795 15.0251C6.12834 13.6934 6.72331 12.2967 6.72331 10.4984C6.72331 10.2846 6.71719 10.0586 6.71082 9.82328L6.70996 9.79167C6.68163 8.83 6.64668 7.63172 7.13501 7.14006C7.62668 6.64672 8.83001 6.68 9.79834 6.70833L9.8255 6.70907C10.0608 6.71549 10.2882 6.72168 10.5016 6.72168C12.2983 6.72168 13.695 6.12671 15.0283 4.79338C16.4617 3.36004 17.3267 2.49504 17.915 2.49504C18.5033 2.49504 19.3682 3.35994 20.8014 4.79313C22.1331 6.12646 23.53 6.72168 25.3284 6.72168C25.5421 6.72168 25.768 6.71556 26.0032 6.7092L26.035 6.70833C26.9967 6.68 28.195 6.64505 28.6867 7.13338C29.18 7.62505 29.1467 8.82838 29.1183 9.79671L29.1176 9.82421C29.1112 10.0594 29.105 10.2866 29.105 10.5C29.105 12.4667 29.6 13.5917 31.0334 15.0267L31.0524 15.0457C32.4743 16.4693 33.3317 17.3277 33.3317 17.9134C33.3317 18.5017 32.4934 19.3416 31.0334 20.8C29.5734 22.2583 29.105 23.3583 29.105 25.3267C29.105 25.5402 29.1112 25.7677 29.1176 26.0031L29.1183 26.0301C29.1467 26.9968 29.18 28.2001 28.6867 28.6917C28.195 29.1801 26.995 29.145 26.0317 29.1167L26.0042 29.116C25.7689 29.1095 25.5417 29.1034 25.3284 29.1034C23.3617 29.1034 22.2833 29.5501 20.89 30.9417C20.7141 31.1176 20.5368 31.3083 20.3496 31.5096L20.3082 31.5541C19.6088 32.3051 18.6543 33.3301 17.9167 33.3301C17.1767 33.3301 16.2183 32.3 15.5183 31.5467C15.4902 31.5167 15.4623 31.4869 15.4346 31.4573C15.2654 31.2765 15.1035 31.1036 14.9417 30.9417Z" fill="#39BADF"/>
</svg>
