<svg width="44" height="44" viewBox="0 0 44 44" fill="none" xmlns="http://www.w3.org/2000/svg">
<g filter="url(#filter0_d_1736_85232)">
<rect x="8" y="4" width="28" height="28" rx="14" fill="white"/>
<rect x="8" y="4" width="28" height="28" rx="14" fill="url(#paint0_linear_1736_85232)"/>
<rect x="8.25" y="4.25" width="27.5" height="27.5" rx="13.75" stroke="#1F1F1F" stroke-opacity="0.08" stroke-width="0.5"/>
<path opacity="0.4" d="M16.1795 24.6408L16.3662 24.6457C17.7381 24.6816 18.424 24.6995 19.048 24.4558C19.6719 24.2121 20.1712 23.7313 21.1697 22.7695L21.1697 22.7695L27.1059 17.052L23.0026 13L17.1956 19.2963C16.3889 20.1703 15.9856 20.6073 15.7517 21.1455C15.5179 21.6837 15.4713 22.2824 15.378 23.4798L15.36 23.7108C15.3268 24.1362 15.3103 24.3489 15.4317 24.4867C15.5531 24.6245 15.7619 24.6299 16.1795 24.6408Z" fill="white"/>
<path fill-rule="evenodd" clip-rule="evenodd" d="M24.1386 11.1988C24.9283 10.7291 25.9023 10.7144 26.7055 11.1603C27.0386 11.3453 27.3425 11.656 27.7945 12.118L27.9173 12.2434C28.3708 12.7064 28.6743 13.0163 28.8546 13.355C29.287 14.1678 29.2729 15.151 28.8172 15.9506C28.6272 16.284 28.3148 16.5847 27.8482 17.0338L21.4357 23.21C20.5152 24.097 19.9478 24.6437 19.2298 24.9242C18.5108 25.205 17.729 25.1844 16.4642 25.1511L16.1396 25.1426C15.9542 25.1378 15.7669 25.1329 15.6121 25.1071C15.4345 25.0775 15.2234 25.0093 15.0564 24.8199C14.891 24.6321 14.8485 24.4153 14.8386 24.237C14.8298 24.0794 14.8445 23.8906 14.8594 23.7008L14.8867 23.3506C14.9728 22.2422 15.0255 21.5647 15.2931 20.9488C15.561 20.3322 16.0186 19.8365 16.7653 19.0278L23.0777 12.1887C23.5162 11.7132 23.811 11.3936 24.1386 11.1988ZM26.2201 12.0346C25.7282 11.7616 25.1338 11.7704 24.6497 12.0583C24.4641 12.1687 24.2738 12.3671 23.7524 12.932L23.698 12.9909L27.0863 16.3792L27.0919 16.3738C27.6443 15.8418 27.8393 15.6468 27.9483 15.4555C28.2342 14.954 28.2432 14.3349 27.9717 13.8247C27.8682 13.6301 27.6787 13.4292 27.1419 12.8809C26.6044 12.3318 26.4086 12.1393 26.2201 12.0346ZM17.5629 19.6381L23.0193 13.7264L26.3659 17.073L20.8228 22.412C19.7944 23.4025 19.3752 23.7938 18.866 23.9927C18.3579 24.1911 17.7923 24.1855 16.3792 24.1485L16.1925 24.1436C16.0862 24.1408 16.0019 24.1386 15.9296 24.1348C15.8921 24.1328 15.8613 24.1306 15.8358 24.1282C15.836 24.048 15.8442 23.9347 15.8584 23.7522L15.8764 23.5212C15.9723 22.2902 16.0176 21.7909 16.2103 21.3473C16.4026 20.9047 16.7335 20.5367 17.5629 19.6381Z" fill="white"/>
<path d="M23.3359 24.1693C23.0598 24.1693 22.8359 24.3931 22.8359 24.6693C22.8359 24.9454 23.0598 25.1693 23.3359 25.1693H28.6693C28.9454 25.1693 29.1693 24.9454 29.1693 24.6693C29.1693 24.3931 28.9454 24.1693 28.6693 24.1693H23.3359Z" fill="white"/>
</g>
<defs>
<filter id="filter0_d_1736_85232" x="0" y="0" width="44" height="44" filterUnits="userSpaceOnUse" color-interpolation-filters="sRGB">
<feFlood flood-opacity="0" result="BackgroundImageFix"/>
<feColorMatrix in="SourceAlpha" type="matrix" values="0 0 0 0 0 0 0 0 0 0 0 0 0 0 0 0 0 0 127 0" result="hardAlpha"/>
<feOffset dy="4"/>
<feGaussianBlur stdDeviation="4"/>
<feComposite in2="hardAlpha" operator="out"/>
<feColorMatrix type="matrix" values="0 0 0 0 0.517647 0 0 0 0 0.886275 0 0 0 0 0.996078 0 0 0 0.24 0"/>
<feBlend mode="normal" in2="BackgroundImageFix" result="effect1_dropShadow_1736_85232"/>
<feBlend mode="normal" in="SourceGraphic" in2="effect1_dropShadow_1736_85232" result="shape"/>
</filter>
<linearGradient id="paint0_linear_1736_85232" x1="22" y1="4" x2="22" y2="32" gradientUnits="userSpaceOnUse">
<stop stop-color="#50B5E7"/>
<stop offset="1" stop-color="#19C6F9"/>
</linearGradient>
</defs>
</svg>
