<svg width="48" height="48" viewBox="0 0 48 48" fill="none" xmlns="http://www.w3.org/2000/svg">
<path opacity="0.4" d="M41.9972 26.0208C41.3164 27.6929 38.18 31.0042 31.0039 31.0042C30.4011 31.0042 28.8198 31.6106 28.9016 34.8966C28.935 37.8667 27.8524 43.7423 23.311 43.9957C22.4111 44 21.4327 44 20.3636 44C16.7655 44 14.9664 44 13.5296 43.4956C11.2196 42.6847 9.3975 40.9698 8.53593 38.7957C8 37.4434 8 35.7501 8 32.3636L8 14C8 12.1414 8 11.2121 8.15372 10.4393C8.78497 7.26575 11.2658 4.78497 14.4393 4.15372C15.2121 4 16.1414 4 18 4L26.5455 4C33.0679 4 36.3291 4 38.5939 5.59567C39.2428 6.05286 39.8188 6.59505 40.3046 7.20578C42 9.33735 42 12.4067 42 18.5455V23.6364C42 24.4903 42 25.2828 41.9972 26.0208Z" fill="#FF7C38"/>
<path fill-rule="evenodd" clip-rule="evenodd" d="M20.3619 45.498C16.598 45.498 14.7081 45.498 13.0301 44.908C10.3081 43.952 8.16211 41.926 7.13811 39.346C6.49611 37.728 6.49609 35.934 6.49609 32.362V23.998C6.49609 23.17 7.16809 22.498 7.99609 22.498C8.82409 22.498 9.49609 23.17 9.49609 23.998V32.362C9.49609 35.554 9.4961 37.156 9.9261 38.242C10.6281 40.014 12.1221 41.412 14.0221 42.08C15.2181 42.5 16.9361 42.5 20.36 42.5C20.9086 42.5 21.4328 42.5 21.934 42.4994C21.9559 42.4985 21.9779 42.498 22 42.498C24.848 42.498 27.166 40.18 27.166 37.332C27.166 37.0118 27.15 36.6668 27.1331 36.3019L27.1295 36.2221C27.0796 35.1331 27.0231 33.8998 27.33 32.748C27.776 31.084 29.086 29.774 30.75 29.33C31.904 29.02 33.142 29.078 34.234 29.13L34.2948 29.1328C34.6625 29.1498 35.0117 29.166 35.334 29.166C38.114 29.166 40.389 26.9573 40.4961 24.203L40.4961 18.546C40.4961 12.764 40.4961 9.86199 39.1261 8.13999C38.7281 7.63999 38.2581 7.198 37.7241 6.822C35.8501 5.5 32.7381 5.5 26.5402 5.5H25.9941C25.1661 5.5 24.4941 4.828 24.4941 4C24.4941 3.172 25.1661 2.5 25.9941 2.5H26.5401C33.3701 2.5 36.8001 2.5 39.4521 4.37C40.2181 4.91 40.8981 5.55 41.4721 6.272C43.4941 8.81399 43.4941 12.066 43.4941 18.546L43.4941 23.866C43.498 23.9102 43.5 23.9548 43.5 24C43.5 24.1052 43.498 24.21 43.494 24.3143C43.4926 29.9766 43.4547 32.9112 42.4501 35.444C40.7801 39.656 37.2681 42.968 32.8141 44.532C30.3184 45.408 27.4279 45.4912 22.1155 45.4992C22.0764 45.4997 22.0372 45.5 21.998 45.5C21.4751 45.5007 20.9296 45.5 20.3583 45.5L20.3619 45.498ZM31.8241 41.702C30.886 42.0309 29.813 42.2243 28.4473 42.3379C29.5228 40.9549 30.164 39.2181 30.164 37.334C30.164 36.9529 30.1467 36.563 30.1298 36.1823L30.126 36.096L30.1257 36.0894C30.0838 35.1754 30.0405 34.2303 30.228 33.526C30.398 32.896 30.894 32.398 31.526 32.23C32.2222 32.0421 33.1569 32.085 34.0634 32.1266L34.094 32.128L34.1744 32.1316C34.5572 32.1485 34.9509 32.166 35.334 32.166C37.2406 32.166 38.9969 31.5092 40.3883 30.4098C40.2831 32.076 40.0751 33.3027 39.6641 34.34C38.3161 37.742 35.4581 40.426 31.8241 41.702Z" fill="#FF7C38"/>
<path d="M7.06066 2.93934C6.47487 2.35355 5.52513 2.35355 4.93934 2.93934C4.35355 3.52513 4.35355 4.47487 4.93934 5.06066L10.8787 11L4.93934 16.9393C4.35355 17.5251 4.35355 18.4749 4.93934 19.0607C5.52513 19.6464 6.47487 19.6464 7.06066 19.0607L13 13.1213L18.9393 19.0607C19.5251 19.6464 20.4749 19.6464 21.0607 19.0607C21.6464 18.4749 21.6464 17.5251 21.0607 16.9393L15.1213 11L21.0607 5.06066C21.6464 4.47487 21.6464 3.52513 21.0607 2.93934C20.4749 2.35355 19.5251 2.35355 18.9393 2.93934L13 8.87868L7.06066 2.93934Z" fill="#FF7C38"/>
</svg>
