<svg width="24" height="24" viewBox="0 0 24 24" fill="none" xmlns="http://www.w3.org/2000/svg">
<path fill-rule="evenodd" clip-rule="evenodd" d="M11 22.7498H10.728C7.31309 22.7498 5.59799 22.7498 4.27101 21.8118C3.89101 21.5418 3.553 21.2258 3.265 20.8708C2.25 19.5898 2.25 17.9658 2.25 14.7288V12.1788C2.25 12.1197 2.25 12.0612 2.25 12.0032L2.25 11.9998C2.25 11.9978 2.25 11.9958 2.25 11.9937C2.25022 9.06536 2.26065 7.56982 2.77101 6.27384C3.60601 4.16884 5.362 2.51387 7.589 1.73087C8.968 1.24887 10.589 1.24884 13.818 1.24884C15.6989 1.24884 16.644 1.24884 17.482 1.54083C18.844 2.02383 19.917 3.03681 20.429 4.32081C20.75 5.1368 20.75 6.03284 20.75 7.8188V11.9988C20.75 12.4128 20.414 12.7488 20 12.7488C19.586 12.7488 19.25 12.4128 19.25 11.9988V7.81886C19.25 6.223 19.25 5.42182 19.034 4.87384C18.683 3.99384 17.935 3.29287 16.984 2.95587C16.39 2.74887 15.53 2.74884 13.818 2.74884H13.8168C13.5505 2.74884 13.2957 2.74884 13.0517 2.7491C13.035 2.75022 13.018 2.75079 13.001 2.75079C11.577 2.75079 10.418 3.90787 10.418 5.33087C10.418 5.49217 10.426 5.66589 10.4345 5.84958C10.435 5.86062 10.4355 5.87171 10.436 5.88282L10.4363 5.88909C10.4612 6.43255 10.4894 7.04706 10.336 7.62384C10.113 8.46284 9.45601 9.11883 8.62101 9.33683C8.04812 9.48701 7.43072 9.46109 6.8849 9.43818L6.84431 9.43648C6.66396 9.42894 6.49273 9.42179 6.334 9.42179C4.91 9.42179 3.751 10.5789 3.751 12.0019C3.751 12.015 3.75067 12.028 3.75 12.0409C3.75 12.0868 3.75 12.1331 3.75 12.1798V14.7298C3.75 17.6188 3.75 19.0688 4.436 19.9338C4.632 20.1758 4.87 20.3978 5.137 20.5878C6.074 21.2498 7.629 21.2498 10.727 21.2498H11C11.414 21.2498 11.75 21.5858 11.75 21.9998C11.75 22.4138 11.414 22.7498 11 22.7498ZM3.80364 8.79915C4.49967 8.24875 5.37869 7.91984 6.33301 7.91984C6.53401 7.91984 6.741 7.9288 6.941 7.9378L6.94578 7.93801C7.4073 7.95795 7.88424 7.97855 8.241 7.88488C8.555 7.80288 8.802 7.5558 8.886 7.2378C8.981 6.8828 8.959 6.40987 8.937 5.95187C8.927 5.74787 8.91801 5.53687 8.91801 5.33087C8.91801 4.38896 9.23906 3.52063 9.77751 2.82936C9.09291 2.88599 8.55545 2.98246 8.086 3.14679C6.27 3.78479 4.841 5.12579 4.166 6.82579C3.96017 7.3483 3.85618 7.96385 3.80364 8.79915Z" fill="#1F1F1F" fill-opacity="0.37"/>
<path fill-rule="evenodd" clip-rule="evenodd" d="M21.001 22.7498C20.809 22.7498 20.617 22.6768 20.47 22.5298L18.806 20.8639C18.11 21.3489 17.288 21.6099 16.429 21.6099C14.125 21.6099 12.25 19.7348 12.25 17.4298C12.25 15.1248 14.125 13.2498 16.429 13.2498C18.733 13.2498 20.607 15.1248 20.607 17.4298C20.607 18.2818 20.352 19.0998 19.868 19.8048L21.531 21.4698C21.824 21.7628 21.823 22.2379 21.531 22.5309C21.385 22.6769 21.193 22.7498 21.001 22.7498ZM16.4295 14.7498C14.9527 14.7501 13.751 15.952 13.751 17.4298C13.751 18.9078 14.953 20.1099 16.43 20.1099C17.141 20.1099 17.813 19.8289 18.324 19.3189L18.332 19.3109L18.334 19.3088C18.421 19.2248 18.501 19.1348 18.57 19.0408C18.921 18.5688 19.107 18.0108 19.107 17.4298C19.107 15.952 17.9063 14.7501 16.4295 14.7498Z" fill="#1F1F1F" fill-opacity="0.37"/>
</svg>
