<svg width="24" height="24" viewBox="0 0 24 24" fill="none" xmlns="http://www.w3.org/2000/svg">
<g opacity="0.4">
<path d="M15.235 11.848C15.602 12 16.068 12 17 12C17.932 12 18.398 12 18.765 11.848C19.255 11.645 19.645 11.255 19.848 10.765C20 10.3981 20 9.93214 20 9.00042C20 8.0687 20 7.60193 19.848 7.23499C19.645 6.74499 19.255 6.35501 18.765 6.15201C18.398 6.00001 17.932 6 17 6C16.068 6 15.602 6.00001 15.235 6.15201C14.745 6.35501 14.355 6.74499 14.152 7.23499C14 7.60193 14 8.06786 14 8.99958C14 9.9313 14 10.3981 14.152 10.765C14.355 11.255 14.745 11.645 15.235 11.848Z" fill="white"/>
<path d="M5.23499 17.848C5.60199 18 6.068 18 7 18C7.932 18 8.39801 18 8.76501 17.848C9.25501 17.645 9.64502 17.255 9.84802 16.765C10 16.3981 10 15.9321 10 15.0004C10 14.0687 10 13.6019 9.84802 13.235C9.64502 12.745 9.25501 12.355 8.76501 12.152C8.39801 12 7.932 12 7 12C6.068 12 5.60199 12 5.23499 12.152C4.74499 12.355 4.35498 12.745 4.15198 13.235C4 13.6019 4 14.0679 4 14.9996C4 15.9313 4 16.3981 4.15198 16.765C4.35498 17.255 4.74499 17.645 5.23499 17.848Z" fill="white"/>
</g>
<path fill-rule="evenodd" clip-rule="evenodd" d="M17.75 5.255V3C17.75 2.586 17.414 2.25 17 2.25C16.586 2.25 16.25 2.586 16.25 3V5.255C16.107 5.258 15.976 5.263 15.855 5.271C15.538 5.292 15.238 5.33902 14.948 5.45901C14.274 5.73801 13.738 6.274 13.459 6.948C13.339 7.238 13.292 7.53801 13.271 7.85501C13.25 8.15901 13.25 8.53001 13.25 8.97501V9.02499C13.25 9.46999 13.25 9.84099 13.271 10.145C13.292 10.462 13.339 10.762 13.459 11.052C13.738 11.726 14.274 12.262 14.948 12.541C15.238 12.661 15.538 12.708 15.855 12.729C16.159 12.75 16.53 12.75 16.975 12.75H17.025C17.47 12.75 17.841 12.75 18.145 12.729C18.462 12.708 18.762 12.661 19.052 12.541C19.726 12.262 20.262 11.726 20.541 11.052C20.661 10.762 20.708 10.462 20.729 10.145C20.75 9.84099 20.75 9.46999 20.75 9.02499V8.97501C20.75 8.53001 20.75 8.15901 20.729 7.85501C20.708 7.53801 20.661 7.238 20.541 6.948C20.262 6.274 19.726 5.73801 19.052 5.45901C18.762 5.33902 18.462 5.292 18.145 5.271C18.024 5.263 17.893 5.258 17.75 5.255ZM16.25 21C16.25 21.414 16.586 21.75 17 21.75C17.414 21.75 17.75 21.414 17.75 21V15C17.75 14.586 17.414 14.25 17 14.25C16.586 14.25 16.25 14.586 16.25 15V21ZM6.25 21C6.25 21.414 6.586 21.75 7 21.75C7.414 21.75 7.75 21.414 7.75 21V18.745C7.893 18.742 8.02402 18.737 8.14502 18.729C8.46202 18.708 8.762 18.661 9.052 18.541C9.726 18.262 10.262 17.726 10.541 17.052C10.661 16.762 10.708 16.462 10.729 16.145C10.75 15.841 10.75 15.47 10.75 15.025V14.975C10.75 14.53 10.75 14.159 10.729 13.855C10.708 13.538 10.661 13.238 10.541 12.948C10.262 12.274 9.726 11.738 9.052 11.459C8.762 11.339 8.46202 11.292 8.14502 11.271C7.84102 11.25 7.47002 11.25 7.02502 11.25H6.97498C6.52998 11.25 6.15898 11.25 5.85498 11.271C5.53798 11.292 5.238 11.339 4.948 11.459C4.274 11.738 3.73798 12.274 3.45898 12.948C3.33898 13.238 3.292 13.538 3.271 13.855C3.25 14.159 3.25 14.53 3.25 14.975V15.025C3.25 15.47 3.25 15.841 3.271 16.145C3.292 16.462 3.33898 16.762 3.45898 17.052C3.73798 17.726 4.274 18.262 4.948 18.541C5.238 18.661 5.53798 18.708 5.85498 18.729C5.97598 18.737 6.107 18.742 6.25 18.745V21ZM6.25 9C6.25 9.414 6.586 9.75 7 9.75C7.414 9.75 7.75 9.414 7.75 9V3C7.75 2.586 7.414 2.25 7 2.25C6.586 2.25 6.25 2.586 6.25 3V9ZM5.95697 12.767C5.71597 12.784 5.59897 12.813 5.52197 12.845C5.21497 12.972 4.97197 13.215 4.84497 13.522C4.81297 13.599 4.78403 13.716 4.76703 13.957C4.75003 14.204 4.75 14.524 4.75 15C4.75 15.476 4.75003 15.796 4.76703 16.043C4.78403 16.284 4.81297 16.401 4.84497 16.478C4.97197 16.785 5.21497 17.028 5.52197 17.155C5.59897 17.187 5.71597 17.216 5.95697 17.233C6.20397 17.25 6.524 17.25 7 17.25C7.476 17.25 7.79603 17.25 8.04303 17.233C8.28403 17.216 8.40103 17.187 8.47803 17.155C8.78503 17.028 9.02803 16.785 9.15503 16.478C9.18703 16.401 9.21597 16.284 9.23297 16.043C9.24997 15.796 9.25 15.476 9.25 15C9.25 14.524 9.24997 14.204 9.23297 13.957C9.21597 13.716 9.18703 13.599 9.15503 13.522C9.02803 13.215 8.78503 12.972 8.47803 12.845C8.40103 12.813 8.28403 12.784 8.04303 12.767C7.79603 12.75 7.476 12.75 7 12.75C6.524 12.75 6.20397 12.75 5.95697 12.767ZM15.522 6.845C15.599 6.813 15.716 6.784 15.957 6.767C16.204 6.75 16.524 6.75 17 6.75C17.476 6.75 17.796 6.75 18.043 6.767C18.284 6.784 18.401 6.813 18.478 6.845C18.785 6.972 19.028 7.215 19.155 7.522C19.187 7.599 19.216 7.716 19.233 7.957C19.25 8.204 19.25 8.524 19.25 9C19.25 9.476 19.25 9.796 19.233 10.043C19.216 10.284 19.187 10.401 19.155 10.478C19.028 10.785 18.785 11.028 18.478 11.155C18.401 11.187 18.284 11.216 18.043 11.233C17.796 11.25 17.476 11.25 17 11.25C16.524 11.25 16.204 11.25 15.957 11.233C15.716 11.216 15.599 11.187 15.522 11.155C15.215 11.028 14.972 10.785 14.845 10.478C14.813 10.401 14.784 10.284 14.767 10.043C14.75 9.796 14.75 9.476 14.75 9C14.75 8.524 14.75 8.204 14.767 7.957C14.784 7.716 14.813 7.599 14.845 7.522C14.972 7.215 15.215 6.972 15.522 6.845Z" fill="white"/>
</svg>
