<svg width="20" height="20" viewBox="0 0 20 20" fill="none" xmlns="http://www.w3.org/2000/svg">
<path d="M3.31402 6.85214C2.54477 7.76152 1.95776 8.83001 1.60938 10.0012C2.68546 13.615 6.03333 16.25 9.99666 16.25C10.8238 16.25 11.6241 16.1352 12.3826 15.9207M5.1871 5.18969C6.56732 4.27965 8.2205 3.75 9.99739 3.75C13.9607 3.75 17.3086 6.38504 18.3847 9.99877C17.7914 11.9932 16.5062 13.6898 14.8074 14.81M5.1871 5.18969L2.49741 2.5M5.1871 5.18969L8.22964 8.23223M14.8074 14.81L17.4974 17.5M14.8074 14.81L11.7652 11.7678M11.7652 11.7678C12.2176 11.3154 12.4974 10.6904 12.4974 10C12.4974 8.61929 11.3781 7.5 9.99741 7.5C9.30706 7.5 8.68206 7.77982 8.22964 8.23223M11.7652 11.7678L8.22964 8.23223" stroke="#1F1F1F" stroke-opacity="0.6" stroke-width="1.5" stroke-linecap="round" stroke-linejoin="round"/>
</svg>
