<svg width="48" height="48" viewBox="0 0 48 48" fill="none" xmlns="http://www.w3.org/2000/svg">
<g opacity="0.4">
<path d="M38.1412 9.85922C38.9223 10.6403 38.9223 11.9066 38.1412 12.6877L33.8986 16.9303C33.1175 17.7113 31.8512 17.7113 31.0702 16.9303C30.2891 16.1492 30.2891 14.8829 31.0702 14.1019L35.3128 9.85922C36.0939 9.07818 37.3602 9.07818 38.1412 9.85922Z" fill="#39BADF"/>
<path d="M36 22C34.8954 22 34 22.8954 34 24C34 25.1046 34.8954 26 36 26H42C43.1046 26 44 25.1046 44 24C44 22.8954 43.1046 22 42 22H36Z" fill="#39BADF"/>
<path d="M26 36C26 34.8954 25.1046 34 24 34C22.8954 34 22 34.8954 22 36V42C22 43.1046 22.8954 44 24 44C25.1046 44 26 43.1046 26 42V36Z" fill="#39BADF"/>
<path d="M33.8986 31.0702C33.1175 30.2891 31.8512 30.2891 31.0702 31.0702C30.2891 31.8512 30.2891 33.1175 31.0702 33.8986L35.3128 38.1412C36.0939 38.9223 37.3602 38.9223 38.1412 38.1412C38.9223 37.3602 38.9223 36.0939 38.1412 35.3128L33.8986 31.0702Z" fill="#39BADF"/>
</g>
<path d="M26 6C26 4.89543 25.1046 4 24 4C22.8954 4 22 4.89543 22 6V12C22 13.1046 22.8954 14 24 14C25.1046 14 26 13.1046 26 12V6Z" fill="#39BADF"/>
<path d="M6 22C4.89543 22 4 22.8954 4 24C4 25.1046 4.89543 26 6 26H12C13.1046 26 14 25.1046 14 24C14 22.8954 13.1046 22 12 22H6Z" fill="#39BADF"/>
<path d="M16.9283 31.0702C17.7094 31.8512 17.7094 33.1175 16.9283 33.8986L12.6857 38.1412C11.9046 38.9223 10.6383 38.9223 9.85727 38.1412C9.07622 37.3602 9.07622 36.0938 9.85727 35.3128L14.0999 31.0702C14.881 30.2891 16.1473 30.2891 16.9283 31.0702Z" fill="#39BADF"/>
<path d="M12.6857 9.85922C11.9046 9.07818 10.6383 9.07818 9.85727 9.85922C9.07622 10.6403 9.07622 11.9066 9.85727 12.6877L14.0999 16.9303C14.881 17.7113 16.1473 17.7113 16.9283 16.9303C17.7094 16.1492 17.7094 14.8829 16.9283 14.1019L12.6857 9.85922Z" fill="#39BADF"/>
</svg>
