<svg width="16" height="16" viewBox="0 0 16 16" fill="none" xmlns="http://www.w3.org/2000/svg">
<path opacity="0.4" fill-rule="evenodd" clip-rule="evenodd" d="M13 6.39126C13 3.61868 10.7059 1.33333 8 1.33333C5.29413 1.33333 3 3.61868 3 6.39126C3 9.21773 5.3355 11.1715 7.485 12.5288C7.64194 12.6191 7.81942 12.6667 8 12.6667C8.18058 12.6667 8.35806 12.6191 8.515 12.5288C10.6685 11.1847 13 9.208 13 6.39126ZM8 8.33333C9.10457 8.33333 10 7.4379 10 6.33333C10 5.22876 9.10457 4.33333 8 4.33333C6.89543 4.33333 6 5.22876 6 6.33333C6 7.4379 6.89543 8.33333 8 8.33333Z" fill="#FF7C38"/>
<path fill-rule="evenodd" clip-rule="evenodd" d="M8 3.83333C6.61929 3.83333 5.5 4.95262 5.5 6.33333C5.5 7.71404 6.61929 8.83333 8 8.83333C9.38071 8.83333 10.5 7.71404 10.5 6.33333C10.5 4.95262 9.38071 3.83333 8 3.83333ZM6.5 6.33333C6.5 5.5049 7.17157 4.83333 8 4.83333C8.82843 4.83333 9.5 5.5049 9.5 6.33333C9.5 7.16176 8.82843 7.83333 8 7.83333C7.17157 7.83333 6.5 7.16176 6.5 6.33333Z" fill="#FF7C38"/>
<path fill-rule="evenodd" clip-rule="evenodd" d="M2.5 6.39126C2.5 3.34571 5.01483 0.833328 8 0.833328C10.9852 0.833328 13.5 3.34571 13.5 6.39126C13.5 9.50086 10.9345 11.608 8.77974 12.9529L8.7722 12.9577L8.76449 12.9621C8.53189 13.096 8.26841 13.1667 8 13.1667C7.73159 13.1667 7.46811 13.096 7.23551 12.9621L7.22668 12.957L7.21805 12.9516C5.07168 11.5963 2.5 9.5114 2.5 6.39126ZM8 1.83333C5.57344 1.83333 3.5 3.89165 3.5 6.39126C3.5 8.92015 5.59283 10.7412 7.74197 12.0997C7.82136 12.1437 7.91008 12.1667 8 12.1667C8.09028 12.1667 8.17936 12.1436 8.259 12.0992C10.4082 10.7563 12.5 8.91172 12.5 6.39126C12.5 3.89165 10.4266 1.83333 8 1.83333Z" fill="#FF7C38"/>
<path fill-rule="evenodd" clip-rule="evenodd" d="M4.49994 13.3256C4.49579 13.053 4.27355 12.8333 4 12.8333C3.72386 12.8333 3.5 13.0572 3.5 13.3333C3.5 13.7363 3.74546 14.0406 4.00485 14.245C4.26989 14.4539 4.62241 14.6201 5.01346 14.7505C5.80078 15.0129 6.85664 15.1667 8 15.1667C9.14336 15.1667 10.1992 15.0129 10.9865 14.7505C11.3776 14.6201 11.7301 14.4539 11.9951 14.245C12.2545 14.0406 12.5 13.7363 12.5 13.3333C12.5 13.0572 12.2761 12.8333 12 12.8333C11.7265 12.8333 11.5042 13.053 11.5001 13.3256C11.4953 13.3381 11.472 13.3841 11.3762 13.4596C11.2364 13.5698 11.0031 13.6909 10.6703 13.8018C10.0099 14.0219 9.06578 14.1667 8 14.1667C6.93422 14.1667 5.99008 14.0219 5.32969 13.8018C4.99688 13.6909 4.76361 13.5698 4.62383 13.4596C4.52797 13.3841 4.50468 13.3381 4.49994 13.3256ZM11.5011 13.322L11.5007 13.3237C11.5009 13.3226 11.5011 13.322 11.5011 13.322Z" fill="#FF7C38"/>
</svg>
