<svg width="24" height="24" viewBox="0 0 24 24" fill="none" xmlns="http://www.w3.org/2000/svg">
<path opacity="0.4" fill-rule="evenodd" clip-rule="evenodd" d="M3.24496 18.2094C2.11383 17.0739 2.08114 15.5412 2.01577 12.4756C1.99475 11.4899 1.99474 10.5101 2.01576 9.52438C2.08114 6.45885 2.11382 4.92608 3.24495 3.79065C4.37608 2.65521 5.95033 2.61566 9.09882 2.53656C11.0393 2.48781 12.9607 2.48781 14.9012 2.53657C18.0497 2.61568 19.6239 2.65523 20.7551 3.79066C21.8862 4.92609 21.9189 6.45886 21.9842 9.52439C22.0053 10.5101 22.0053 11.4899 21.9842 12.4756C21.9189 15.5411 21.8862 17.0739 20.7551 18.2094C20.6122 18.3528 20.4622 18.4787 20.3029 18.5895C18.845 17.7844 17.0264 17.804 15.5861 18.6482C15.5236 18.6848 15.451 18.7253 15.3719 18.7694C15.0489 18.9493 14.6179 19.1893 14.325 19.4765C12.5798 19.5117 10.8471 19.5074 9.09883 19.4634C5.95033 19.3843 4.37608 19.3448 3.24496 18.2094ZM17.9961 16C19.1007 16 19.9961 15.1046 19.9961 14C19.9961 12.8954 19.1007 12 17.9961 12C16.8915 12 15.9961 12.8954 15.9961 14C15.9961 15.1046 16.8915 16 17.9961 16Z" fill="#1F1F1F" fill-opacity="0.6"/>
<path d="M14.8823 3.28634C12.9544 3.23789 11.0456 3.23789 9.11766 3.28634C7.52099 3.32646 6.40531 3.3564 5.54409 3.50643C4.7166 3.65059 4.20064 3.89426 3.77637 4.32028C3.34911 4.74929 3.10925 5.25891 2.96965 6.06304C2.82385 6.90288 2.79877 7.9865 2.76559 9.54247C2.7448 10.5178 2.7448 11.4873 2.7656 12.4626C2.79877 14.0186 2.82385 15.1022 2.96965 15.9421C3.10925 16.7462 3.34911 17.2558 3.77637 17.6848C4.20065 18.1108 4.7166 18.3545 5.5441 18.4987C6.40531 18.6487 7.521 18.6786 9.11767 18.7188C9.72007 18.7339 10.5045 18.7443 11.0085 18.75C11.4227 18.7547 11.7546 19.0943 11.75 19.5085C11.7453 19.9227 11.4057 20.2546 10.9915 20.25C10.4868 20.2442 9.69353 20.2337 9.07999 20.2183L9.02178 20.2168C7.49697 20.1785 6.26999 20.1477 5.28666 19.9764C4.25712 19.7971 3.42039 19.4531 2.71354 18.7433C2.00967 18.0365 1.66763 17.2117 1.49176 16.1986C1.32429 15.234 1.29879 14.0366 1.26719 12.5533L1.26594 12.4946C1.24469 11.498 1.24469 10.5071 1.26593 9.5105L1.26719 9.45178C1.29878 7.96846 1.32429 6.7711 1.49175 5.80647C1.66762 4.79343 2.00967 3.96855 2.71354 3.26179C3.42039 2.55204 4.25712 2.20804 5.28666 2.02869C6.27 1.85738 7.49699 1.82657 9.02181 1.78827L9.07998 1.78681C11.033 1.73773 12.967 1.73773 14.92 1.78682L14.9782 1.78828C16.503 1.82658 17.73 1.8574 18.7133 2.0287C19.7429 2.20806 20.5796 2.55205 21.2865 3.26181C21.9903 3.96857 22.3324 4.79345 22.5082 5.80649C22.6757 6.77111 22.7012 7.96848 22.7328 9.4518L22.7341 9.51052C22.7359 9.59731 22.7374 9.62521 22.7389 9.65584L22.7403 9.68229C22.743 9.74029 22.7446 9.81051 22.746 9.99463C22.7489 10.4088 22.4155 10.747 22.0013 10.75C21.5871 10.7529 21.249 10.4196 21.246 10.0054C21.2447 9.82276 21.2431 9.77807 21.2419 9.75192L21.2408 9.73082C21.2391 9.69723 21.2367 9.65174 21.2344 9.54249C21.2012 7.98651 21.1762 6.9029 21.0304 6.06305C20.8908 5.25892 20.6509 4.7493 20.2236 4.32029C19.7994 3.89427 19.2834 3.6506 18.4559 3.50645C17.5947 3.35642 16.479 3.32647 14.8823 3.28634Z" fill="#1F1F1F" fill-opacity="0.6"/>
<path d="M6.35452 7.11829C6.56533 6.76174 7.02527 6.64358 7.38182 6.85439L10.3238 8.59382C11.1682 9.09304 11.6171 9.25 12.0001 9.25C12.3831 9.25 12.832 9.09304 13.6764 8.59382L16.6184 6.85439C16.975 6.64358 17.4349 6.76174 17.6457 7.11829C17.8565 7.47485 17.7384 7.93479 17.3818 8.1456L14.4398 9.88503C13.569 10.3999 12.8175 10.75 12.0001 10.75C11.1827 10.75 10.4313 10.3999 9.56043 9.88503L6.61841 8.1456C6.26186 7.93479 6.14371 7.47485 6.35452 7.11829Z" fill="#1F1F1F" fill-opacity="0.6"/>
<path fill-rule="evenodd" clip-rule="evenodd" d="M17.996 11.25C16.4773 11.25 15.246 12.4812 15.246 14C15.246 15.5188 16.4773 16.75 17.996 16.75C19.5148 16.75 20.746 15.5188 20.746 14C20.746 12.4812 19.5148 11.25 17.996 11.25ZM16.746 14C16.746 13.3096 17.3057 12.75 17.996 12.75C18.6864 12.75 19.246 13.3096 19.246 14C19.246 14.6904 18.6864 15.25 17.996 15.25C17.3057 15.25 16.746 14.6904 16.746 14Z" fill="#1F1F1F" fill-opacity="0.6"/>
<path fill-rule="evenodd" clip-rule="evenodd" d="M20.7853 18.0012C19.0766 16.9996 16.9155 16.9996 15.2068 18.0012C15.1672 18.0243 15.114 18.0538 15.0507 18.0888C14.7411 18.2599 14.1906 18.5644 13.8167 18.9246C13.5838 19.1489 13.3059 19.4958 13.2543 19.9605C13.1973 20.4733 13.4344 20.9155 13.7997 21.2581C14.3593 21.7828 15.0809 22.25 16.0364 22.25H19.9557C20.9112 22.25 21.6328 21.7828 22.1924 21.2581C22.5576 20.9155 22.7948 20.4733 22.7378 19.9605C22.6862 19.4958 22.4083 19.1489 22.1754 18.9246C21.8015 18.5644 21.251 18.2599 20.9414 18.0888C20.8782 18.0539 20.8248 18.0243 20.7853 18.0012ZM20.3061 19.454C20.615 19.627 20.9196 19.7976 21.1346 20.0048C21.1791 20.0476 21.207 20.0807 21.2242 20.1039C21.2109 20.1196 21.1923 20.1395 21.1663 20.1639C20.7448 20.5592 20.3738 20.75 19.9557 20.75H16.0364C15.6183 20.75 15.2473 20.5592 14.8258 20.1639C14.7998 20.1395 14.7811 20.1196 14.7679 20.1039C14.7851 20.0807 14.813 20.0476 14.8575 20.0048C15.0725 19.7976 15.3769 19.6271 15.6858 19.4542C15.7793 19.4018 15.8733 19.3492 15.9653 19.2952C17.2056 18.5683 18.7865 18.5683 20.0268 19.2952C20.1187 19.3491 20.2126 19.4017 20.3061 19.454ZM21.2509 20.0674C21.2536 20.0626 21.254 20.0603 21.254 20.0603C21.254 20.0603 21.2535 20.0611 21.2529 20.0625C21.2523 20.0637 21.2516 20.0653 21.2509 20.0674Z" fill="#1F1F1F" fill-opacity="0.6"/>
</svg>
