<svg width="24" height="24" viewBox="0 0 24 24" fill="none" xmlns="http://www.w3.org/2000/svg">
<path d="M14.5 16.5002L18.216 17.6179C19.6034 18.0425 20.6341 19.1554 20.9763 20.5101C21.1115 21.0458 20.6489 21.5002 20.0936 21.5002H3.90639C3.35107 21.5002 2.88845 21.0458 3.02375 20.5101C3.36593 19.1554 4.39659 18.0425 5.78401 17.6179L9.5 16.5002V14.5624C7.71916 13.1686 6.5 11.5 6.5 7.91681C6.5 4.32696 8.45474 2.5 11.4923 2.5C13.6433 2.5 14.5385 3.5 14.5385 3.5C17.0769 3.5 17.5 5.59719 17.5 7.91681C17.5 11.5 16.2808 13.1686 14.5 14.5624V16.5002Z" stroke="#1F1F1F" stroke-opacity="0.6" stroke-width="1.5" stroke-linejoin="round"/>
</svg>
