<svg width="24" height="24" viewBox="0 0 24 24" fill="none" xmlns="http://www.w3.org/2000/svg">
<path opacity="0.4" d="M2.52992 14.394C2.31727 15.7471 3.268 16.6862 4.43205 17.1542C8.89481 18.9486 15.1052 18.9486 19.5679 17.1542C20.732 16.6862 21.6827 15.7471 21.4701 14.394C21.3394 13.5625 20.6932 12.8701 20.2144 12.194C19.5873 11.2975 19.525 10.3197 19.5249 9.27941C19.5249 5.2591 16.1559 2 12 2C7.84413 2 4.47513 5.2591 4.47513 9.27941C4.47503 10.3197 4.41272 11.2975 3.78561 12.194C3.30684 12.8701 2.66061 13.5625 2.52992 14.394Z" fill="white"/>
<path fill-rule="evenodd" clip-rule="evenodd" d="M12.0006 1.25C7.45421 1.25 3.7258 4.8216 3.72576 9.27935C3.72567 10.3065 3.65462 11.0726 3.17289 11.7624C3.0846 11.887 2.99112 12.011 2.88876 12.1467L2.8068 12.2556C2.67546 12.4304 2.53378 12.6221 2.40121 12.8237C2.13852 13.2232 1.87903 13.709 1.78965 14.2776C1.49741 16.137 2.84561 17.3245 4.1529 17.8501C8.7952 19.7166 15.2061 19.7166 19.8484 17.8501C21.1557 17.3245 22.5039 16.137 22.2116 14.2776C22.1222 13.709 21.8628 13.2232 21.6001 12.8237C21.4675 12.6221 21.3258 12.4304 21.1945 12.2556L21.1126 12.1468C21.0103 12.0111 20.9167 11.887 20.8284 11.7624C20.3467 11.0727 20.2756 10.3066 20.2755 9.27941C20.2755 4.82164 16.5471 1.25 12.0006 1.25ZM5.22576 9.27941C5.22576 5.69657 8.23534 2.75 12.0006 2.75C15.7659 2.75 18.7755 5.69657 18.7755 9.27941C18.7756 10.332 18.8291 11.5212 19.6005 12.6239L19.6029 12.6274C19.7059 12.7728 19.8171 12.9203 19.9214 13.0586L19.9952 13.1565C20.1238 13.3277 20.2416 13.4879 20.3467 13.6478C20.5595 13.9714 20.6885 14.2476 20.7298 14.5105C20.8629 15.3571 20.3096 16.0479 19.2888 16.4584C15.0056 18.1805 8.99569 18.1805 4.71248 16.4584C3.69166 16.0479 3.1384 15.3571 3.27146 14.5105C3.31278 14.2476 3.44174 13.9714 3.65453 13.6478C3.75971 13.4879 3.87752 13.3277 4.00608 13.1565L4.07989 13.0586C4.18417 12.9203 4.29537 12.7728 4.39833 12.6274L4.4008 12.6239C5.17221 11.5212 5.22567 10.332 5.22576 9.27941Z" fill="white"/>
<path d="M9.463 20.409C9.13656 20.154 8.66524 20.2119 8.41026 20.5384C8.15528 20.8648 8.2132 21.3361 8.53963 21.5911C9.47067 22.3183 10.6854 22.75 12.0013 22.75C13.3173 22.75 14.532 22.3183 15.463 21.5911C15.7894 21.3361 15.8474 20.8648 15.5924 20.5384C15.3374 20.2119 14.8661 20.154 14.5396 20.409C13.8784 20.9255 12.9904 21.25 12.0013 21.25C11.0122 21.25 10.1242 20.9255 9.463 20.409Z" fill="white"/>
</svg>
