<svg width="12" height="12" viewBox="0 0 12 12" fill="none" xmlns="http://www.w3.org/2000/svg">
<path opacity="0.4" d="M3.00223 3.80666C2.96859 3.37137 3.31979 3 3.76507 3H8.23493C8.68021 3 9.03141 3.37137 8.99777 3.80666L8.90586 4.99598C8.8398 5.85095 8.55058 6.67489 8.06598 7.38866L7.76559 7.83111C7.48191 8.24895 7.00386 8.5 6.49188 8.5H5.50812C4.99614 8.5 4.51809 8.24895 4.23441 7.83111L3.93402 7.38866C3.44943 6.67489 3.1602 5.85095 3.09414 4.99598L3.00223 3.80666Z" fill="#1F1F1F" fill-opacity="0.6"/>
<path d="M5.5 4.125C5.29289 4.125 5.125 4.29289 5.125 4.5C5.125 4.70711 5.29289 4.875 5.5 4.875H6.5C6.70711 4.875 6.875 4.70711 6.875 4.5C6.875 4.29289 6.70711 4.125 6.5 4.125H5.5Z" fill="#1F1F1F" fill-opacity="0.6"/>
<path fill-rule="evenodd" clip-rule="evenodd" d="M4.625 1C4.625 0.792893 4.45711 0.625 4.25 0.625C4.04289 0.625 3.875 0.792893 3.875 1V2.625H3.76512C3.10922 2.625 2.57732 3.17464 2.6284 3.83555L2.7203 5.02488C2.79143 5.94534 3.10279 6.83186 3.62381 7.5993L3.9242 8.04175C4.27883 8.56409 4.87398 8.875 5.50817 8.875H5.625V11C5.625 11.2071 5.79289 11.375 6 11.375C6.20711 11.375 6.375 11.2071 6.375 11V8.875H6.49193C7.12612 8.875 7.72127 8.56409 8.0759 8.04175L8.37629 7.5993C8.89731 6.83186 9.20867 5.94534 9.2798 5.02488L9.37171 3.83555C9.42278 3.17464 8.89088 2.625 8.23498 2.625H8.125V1C8.125 0.792893 7.95711 0.625 7.75 0.625C7.54289 0.625 7.375 0.792893 7.375 1V2.625H4.625V1ZM6.49193 8.125H5.50817C5.1184 8.125 4.75745 7.93382 4.54471 7.62048L4.24432 7.17802C3.79616 6.51792 3.52908 5.75655 3.46807 4.96709L3.37617 3.77776C3.35996 3.5681 3.53045 3.375 3.76512 3.375H8.23498C8.46965 3.375 8.64014 3.5681 8.62394 3.77776L8.53203 4.96709C8.47102 5.75655 8.20394 6.51792 7.75578 7.17802L7.45539 7.62048C7.24266 7.93382 6.8817 8.125 6.49193 8.125Z" fill="#1F1F1F" fill-opacity="0.6"/>
</svg>
