<svg width="12" height="12" viewBox="0 0 12 12" fill="none" xmlns="http://www.w3.org/2000/svg">
<path opacity="0.4" d="M3.00223 3.80666C2.96859 3.37137 3.31979 3 3.76507 3H8.23493C8.68021 3 9.03141 3.37137 8.99777 3.80666L8.90586 4.99598C8.8398 5.85095 8.55058 6.67489 8.06598 7.38866L7.76559 7.83111C7.48191 8.24895 7.00386 8.5 6.49188 8.5H5.50812C4.99614 8.5 4.51809 8.24895 4.23441 7.83111L3.93402 7.38866C3.44943 6.67489 3.1602 5.85095 3.09414 4.99598L3.00223 3.80666Z" fill="#1F1F1F" fill-opacity="0.6"/>
<path d="M5.49997 4.125C5.29286 4.125 5.12497 4.29289 5.12497 4.5C5.12497 4.70711 5.29286 4.875 5.49997 4.875H6.49997C6.70708 4.875 6.87497 4.70711 6.87497 4.5C6.87497 4.29289 6.70708 4.125 6.49997 4.125H5.49997Z" fill="#1F1F1F" fill-opacity="0.6"/>
<path fill-rule="evenodd" clip-rule="evenodd" d="M4.62497 1C4.62497 0.792893 4.45708 0.625 4.24997 0.625C4.04286 0.625 3.87497 0.792893 3.87497 1V2.625H3.76509C3.10919 2.625 2.57729 3.17464 2.62836 3.83555L2.72027 5.02488C2.7914 5.94534 3.10276 6.83186 3.62378 7.5993L3.92417 8.04175C4.2788 8.56409 4.87395 8.875 5.50814 8.875H5.62497V11C5.62497 11.2071 5.79286 11.375 5.99997 11.375C6.20708 11.375 6.37497 11.2071 6.37497 11V8.875H6.4919C7.12609 8.875 7.72124 8.56409 8.07587 8.04175L8.37626 7.5993C8.89728 6.83186 9.20864 5.94534 9.27977 5.02488L9.37168 3.83555C9.42275 3.17464 8.89085 2.625 8.23495 2.625H8.12497V1C8.12497 0.792893 7.95708 0.625 7.74997 0.625C7.54286 0.625 7.37497 0.792893 7.37497 1V2.625H4.62497V1ZM6.4919 8.125H5.50814C5.11837 8.125 4.75742 7.93382 4.54468 7.62048L4.24429 7.17802C3.79613 6.51792 3.52905 5.75655 3.46804 4.96709L3.37614 3.77776C3.35993 3.5681 3.53042 3.375 3.76509 3.375H8.23495C8.46962 3.375 8.64011 3.5681 8.62391 3.77776L8.532 4.96709C8.47099 5.75655 8.20391 6.51792 7.75575 7.17802L7.45536 7.62048C7.24263 7.93382 6.88167 8.125 6.4919 8.125Z" fill="#1F1F1F" fill-opacity="0.6"/>
</svg>
