<svg width="24" height="24" viewBox="0 0 24 24" fill="none" xmlns="http://www.w3.org/2000/svg">
<path opacity="0.4" fill-rule="evenodd" clip-rule="evenodd" d="M7.16873 3.35618C8.59295 2.5706 10.0807 1.75 11.9982 1.75C13.9157 1.75 15.4043 2.5706 16.8294 3.35618C17.6397 3.80287 18.4295 4.23825 19.2659 4.50499C20.2037 4.80405 20.6726 4.95358 20.8624 5.16449C21.0522 5.37539 21.1078 5.68362 21.219 6.30007C22.4086 12.8959 19.8116 18.9939 13.6126 21.3675C12.9466 21.6225 12.6135 21.75 12.0015 21.75C11.3894 21.75 11.0564 21.6225 10.3903 21.3675C4.1909 18.994 1.59143 12.896 2.78072 6.30013C2.89186 5.68375 2.94743 5.37556 3.1372 5.16465C3.32697 4.95374 3.79588 4.80413 4.7337 4.50491C5.56973 4.23816 6.35897 3.80283 7.16873 3.35618ZM11.125 10.125H12.875C13.6904 10.125 14.0981 10.125 14.4197 10.2677C14.8485 10.458 15.1892 10.823 15.3668 11.2825C15.5 11.627 15.5 12.0639 15.5 12.9375C15.5 13.8111 15.5 14.248 15.3668 14.5925C15.1892 15.052 14.8485 15.417 14.4197 15.6073C14.0981 15.75 13.6904 15.75 12.875 15.75H11.125C10.3096 15.75 9.9019 15.75 9.5803 15.6073C9.1515 15.417 8.81083 15.052 8.63321 14.5925C8.5 14.248 8.5 13.8111 8.5 12.9375C8.5 12.0639 8.5 11.627 8.63321 11.2825C8.81083 10.823 9.1515 10.458 9.5803 10.2677C9.9019 10.125 10.3096 10.125 11.125 10.125Z" fill="#1F1F1F" fill-opacity="0.6"/>
<path fill-rule="evenodd" clip-rule="evenodd" d="M9.49887 8.758V9.75644C8.53526 10.0662 8.01303 10.8796 7.86843 11.458C7.82049 11.6498 7.79523 11.9083 7.77937 12.1518C7.76247 12.4113 7.75317 12.7107 7.75008 13.0122C7.74396 13.6084 7.76178 14.2547 7.80176 14.6545L7.80778 14.7147L7.82336 14.7731C8.14837 15.9919 9.00668 16.5395 9.82607 16.7067L9.86751 16.7152L9.90963 16.7189C10.3963 16.7622 12.1037 16.7562 13.0183 16.753L13.0202 16.753C13.1985 16.7524 13.3466 16.7519 13.4494 16.7519C14.017 16.7616 14.6015 16.662 15.1067 16.3286C15.6266 15.9854 15.9713 15.4551 16.1587 14.7806L16.1693 14.7424L16.1758 14.7032C16.2171 14.4553 16.2461 13.8121 16.2498 13.2045C16.2517 12.8878 16.247 12.5572 16.2314 12.2623C16.2167 11.9829 16.1901 11.6838 16.1336 11.458L16.1268 11.4307L16.118 11.404C15.8084 10.4696 15.1614 9.97647 14.5149 9.76301V8.758C14.5149 7.37287 13.392 6.25 12.0069 6.25C10.6217 6.25 9.49887 7.37287 9.49887 8.758ZM12.0069 7.75C11.4502 7.75 10.9989 8.2013 10.9989 8.758V9.62988H13.0149V8.758C13.0149 8.2013 12.5636 7.75 12.0069 7.75ZM10.336 11.1299C9.68147 11.1299 9.38166 11.5897 9.32364 11.8218C9.31159 11.87 9.29185 12.009 9.2762 12.2492C9.2616 12.4734 9.25291 12.744 9.25 13.0276C9.24448 13.5656 9.26012 14.1123 9.28849 14.4424C9.37362 14.7261 9.50031 14.8951 9.62375 15.0025C9.75063 15.1129 9.90718 15.1864 10.0858 15.2282C10.5502 15.2606 12.0431 15.2559 12.9488 15.2531C13.1545 15.2524 13.3299 15.2519 13.456 15.2519L13.4701 15.252C13.8601 15.2593 14.1127 15.1873 14.2804 15.0767C14.4298 14.9781 14.5887 14.7984 14.7008 14.4227C14.7196 14.2613 14.7463 13.7689 14.7498 13.1953C14.7516 12.8969 14.747 12.5975 14.7335 12.3412C14.7205 12.0955 14.7012 11.9302 14.6839 11.846C14.4875 11.2926 14.054 11.1299 13.696 11.1299H10.336Z" fill="#1F1F1F" fill-opacity="0.6"/>
<path fill-rule="evenodd" clip-rule="evenodd" d="M11.9971 1.25C10.3158 1.25 8.94899 1.81794 7.75686 2.43555C7.3966 2.62219 7.06193 2.8068 6.74212 2.98322C5.95967 3.41485 5.2662 3.7974 4.50463 4.04039L4.47909 4.04854C4.03186 4.19123 3.6611 4.30952 3.38019 4.41959C3.11578 4.52321 2.80152 4.66519 2.57856 4.913C2.37828 5.13559 2.27539 5.38547 2.20717 5.6245C2.14524 5.84148 2.09782 6.10461 2.04703 6.38643L2.04151 6.41704C0.803573 13.2827 3.51057 19.787 10.121 22.3179L10.1541 22.3306C10.8038 22.5794 11.2493 22.75 12.0004 22.75C12.7515 22.75 13.1972 22.5793 13.847 22.3304L13.8797 22.3179C20.4899 19.7868 23.1942 13.2825 21.956 6.41701L21.9505 6.38639C21.8996 6.10451 21.8522 5.84134 21.7903 5.62433C21.722 5.38529 21.6191 5.13539 21.4188 4.91279C21.1958 4.66499 20.8815 4.52304 20.6171 4.41946C20.3362 4.30942 19.9654 4.19118 19.5181 4.04856L19.4927 4.04045C18.7307 3.79744 18.0366 3.41479 17.2536 2.98309C16.9336 2.80671 16.5988 2.62212 16.2385 2.43554C15.0458 1.81795 13.6784 1.25 11.9971 1.25ZM4.96058 5.46941C5.87244 5.17847 6.76083 4.68833 7.59112 4.23023C7.88411 4.06859 8.16987 3.91093 8.44686 3.76742C9.55842 3.19156 10.6706 2.75 11.9971 2.75C13.3237 2.75 14.4365 3.19162 15.5488 3.76757C15.8259 3.91108 16.1118 4.06872 16.405 4.23035C17.2358 4.68848 18.1247 5.17862 19.0369 5.46953C19.5161 5.62233 19.8399 5.726 20.07 5.81613C20.2215 5.87546 20.2873 5.91295 20.3085 5.9254C20.3165 5.94137 20.3302 5.97433 20.3479 6.0361C20.3867 6.17223 20.4215 6.36018 20.4798 6.68325C21.6208 13.0095 19.1311 18.701 13.3433 20.9171C12.679 21.1714 12.4608 21.25 12.0004 21.25C11.5399 21.25 11.3218 21.1714 10.6574 20.9171C4.86902 18.701 2.37707 13.0093 3.51771 6.68322C3.57595 6.3602 3.61072 6.17228 3.64957 6.03618C3.66719 5.97443 3.68096 5.94148 3.6889 5.92552C3.71011 5.91307 3.77596 5.87556 3.92746 5.8162C4.15759 5.72602 4.48143 5.62229 4.96058 5.46941ZM3.69443 5.91539C3.69581 5.91375 3.69647 5.91271 3.69645 5.91259C3.69644 5.91252 3.69619 5.91278 3.69572 5.91342C3.6954 5.91388 3.69497 5.91452 3.69443 5.91539Z" fill="#1F1F1F" fill-opacity="0.6"/>
</svg>
