<svg width="12" height="12" viewBox="0 0 12 12" fill="none" xmlns="http://www.w3.org/2000/svg">
<path opacity="0.4" d="M6.86382 1.72209L7.74372 3.49644C7.86371 3.74343 8.18367 3.98035 8.45364 4.02572L10.0485 4.29288C11.0684 4.46426 11.3083 5.2103 10.5734 5.94625L9.33354 7.19636C9.12357 7.40807 9.00858 7.81637 9.07357 8.10873L9.42853 9.65625C9.7085 10.8812 9.06357 11.355 7.98869 10.7148L6.49386 9.82259C6.22389 9.66129 5.77894 9.66129 5.50397 9.82259L4.00913 10.7148C2.93925 11.355 2.28932 10.8761 2.56929 9.65625L2.92425 8.10873C2.98925 7.81637 2.87426 7.40807 2.66428 7.19636L1.42442 5.94625C0.6945 5.2103 0.929474 4.46426 1.94936 4.29288L3.54419 4.02572C3.80916 3.98035 4.12912 3.74343 4.24911 3.49644L5.12901 1.72209C5.60896 0.759304 6.38887 0.759304 6.86382 1.72209Z" fill="#F5A623"/>
<path fill-rule="evenodd" clip-rule="evenodd" d="M5.46463 1.88939C5.46456 1.88951 5.46469 1.88927 5.46463 1.88939L4.58566 3.66184C4.49235 3.85308 4.33628 4.01688 4.17556 4.13704C4.0145 4.25744 3.81405 4.35997 3.60747 4.39534L3.60614 4.39556L2.01151 4.66269C1.56807 4.73721 1.42237 4.91323 1.38822 5.02107C1.35361 5.13035 1.37236 5.36123 1.69068 5.68218L2.93054 6.93228C3.09141 7.09449 3.19889 7.31122 3.25813 7.51988C3.31744 7.7288 3.33953 7.96875 3.29032 8.19011L3.28977 8.19257L2.9348 9.74009C2.80233 10.3173 2.93612 10.5301 3.00525 10.581C3.07247 10.6304 3.31112 10.6955 3.81659 10.393L5.31422 9.49913C5.52242 9.377 5.77188 9.32662 6.00079 9.32662C6.22932 9.32662 6.47889 9.37686 6.68606 9.50059C6.68601 9.50056 6.68611 9.50062 6.68606 9.50059L8.18058 10.3926C8.18051 10.3926 8.18066 10.3927 8.18058 10.3926C8.69024 10.6961 8.92859 10.6313 8.99459 10.5828C9.06216 10.5331 9.19593 10.3215 9.06297 9.73981L8.70751 8.19011C8.6583 7.96875 8.68039 7.7288 8.73971 7.51988C8.79895 7.31122 8.90642 7.09449 9.0673 6.93228L10.3072 5.68218L10.3081 5.68127C10.6285 5.36041 10.6463 5.13015 10.6117 5.02175C10.5772 4.9136 10.4301 4.73727 9.98632 4.66269L8.39169 4.39556C8.18299 4.36049 7.98097 4.25835 7.81861 4.13756C7.65678 4.01716 7.50054 3.85319 7.40717 3.66184L6.52752 1.88799C6.31639 1.46001 6.10226 1.375 5.99829 1.375C5.89367 1.375 5.67819 1.46117 5.46463 1.88939ZM7.20001 1.55596C6.93619 1.02127 6.52293 0.625 5.99829 0.625C5.47426 0.625 5.05972 1.02054 4.7934 1.55479L4.79306 1.55549L3.91315 3.32983L3.9118 3.33258C3.88504 3.38768 3.82155 3.46527 3.72648 3.53634C3.6316 3.60728 3.53983 3.64587 3.48141 3.65601C3.48124 3.65604 3.48107 3.65607 3.4809 3.6561L1.88741 3.92303C1.31096 4.0199 0.829041 4.30262 0.673218 4.79463C0.517848 5.2852 0.746567 5.79532 1.15817 6.21032L2.39803 7.46043C2.44714 7.50994 2.50214 7.60321 2.53664 7.72472C2.57091 7.84541 2.57395 7.95534 2.55841 8.02637C2.55834 8.0267 2.55827 8.02703 2.55819 8.02736L2.2038 9.57236C2.2038 9.57238 2.2038 9.57235 2.2038 9.57236C2.05631 10.215 2.10749 10.8516 2.5608 11.1851C3.01601 11.52 3.63727 11.3743 4.20169 11.0366L5.69372 10.146C5.69403 10.1459 5.69435 10.1457 5.69466 10.1455C5.76153 10.1066 5.87161 10.0766 6.00079 10.0766C6.13092 10.0766 6.23874 10.107 6.30152 10.1445L7.7965 11.0368C8.36158 11.3734 8.9836 11.5217 9.43878 11.1871C9.89241 10.8537 9.94112 10.2159 9.79411 9.57269L9.43964 8.02736C9.43957 8.02703 9.4395 8.0267 9.43942 8.02637C9.42389 7.95534 9.42693 7.84541 9.46119 7.72472C9.49569 7.60321 9.5507 7.50994 9.5998 7.46043L10.8388 6.21123C10.8389 6.21109 10.839 6.21096 10.8392 6.21082C11.2534 5.7958 11.4829 5.28525 11.3263 4.79395C11.1695 4.30225 10.6867 4.01987 10.1106 3.92306L8.51579 3.6559C8.45452 3.64561 8.36138 3.60657 8.26628 3.53582C8.17107 3.46499 8.10774 3.38756 8.08103 3.33258L7.20001 1.55596C7.20005 1.55603 7.19998 1.55588 7.20001 1.55596Z" fill="#F5A623"/>
</svg>
