<svg width="24" height="24" viewBox="0 0 12 12" fill="none" xmlns="http://www.w3.org/2000/svg">
<path opacity="0.4" d="M6.86382 1.72209L7.74372 3.49644C7.86371 3.74343 8.18367 3.98035 8.45364 4.02572L10.0485 4.29288C11.0684 4.46426 11.3083 5.2103 10.5734 5.94625L9.33354 7.19636C9.12357 7.40807 9.00858 7.81637 9.07357 8.10873L9.42853 9.65625C9.7085 10.8812 9.06357 11.355 7.98869 10.7148L6.49386 9.82259C6.22389 9.66129 5.77894 9.66129 5.50397 9.82259L4.00913 10.7148C2.93925 11.355 2.28932 10.8761 2.56929 9.65625L2.92425 8.10873C2.98925 7.81637 2.87426 7.40807 2.66428 7.19636L1.42442 5.94625C0.6945 5.2103 0.929474 4.46426 1.94936 4.29288L3.54419 4.02572C3.80916 3.98035 4.12912 3.74343 4.24911 3.49644L5.12901 1.72209C5.60896 0.759304 6.38887 0.759304 6.86382 1.72209Z" fill="#F5A623"/>
<path fill-rule="evenodd" clip-rule="evenodd" d="M5.46461 1.88939C5.46455 1.88951 5.46467 1.88927 5.46461 1.88939L4.58565 3.66184C4.49234 3.85308 4.33626 4.01688 4.17554 4.13704C4.01448 4.25744 3.81404 4.35997 3.60746 4.39534L3.60613 4.39556L2.0115 4.66269C1.56806 4.73721 1.42236 4.91323 1.3882 5.02107C1.35359 5.13035 1.37234 5.36123 1.69066 5.68218L2.93052 6.93228C3.0914 7.09449 3.19887 7.31122 3.25811 7.51988C3.31743 7.7288 3.33952 7.96875 3.29031 8.19011L3.28976 8.19257L2.93479 9.74009C2.80232 10.3173 2.93611 10.5301 3.00523 10.581C3.07246 10.6304 3.31111 10.6955 3.81657 10.393L5.31421 9.49913C5.52241 9.377 5.77186 9.32662 6.00078 9.32662C6.2293 9.32662 6.47888 9.37686 6.68604 9.50059C6.68599 9.50056 6.68609 9.50062 6.68604 9.50059L8.18057 10.3926C8.1805 10.3926 8.18064 10.3927 8.18057 10.3926C8.69023 10.6961 8.92857 10.6313 8.99457 10.5828C9.06214 10.5331 9.19591 10.3215 9.06295 9.73981L8.70749 8.19011C8.65828 7.96875 8.68038 7.7288 8.73969 7.51988C8.79893 7.31122 8.90641 7.09449 9.06728 6.93228L10.3071 5.68218L10.308 5.68127C10.6285 5.36041 10.6462 5.13015 10.6117 5.02175C10.5772 4.9136 10.4301 4.73727 9.98631 4.66269L8.39168 4.39556C8.18298 4.36049 7.98096 4.25835 7.81859 4.13756C7.65676 4.01716 7.50052 3.85319 7.40716 3.66184L6.5275 1.88799C6.31638 1.46001 6.10225 1.375 5.99828 1.375C5.89366 1.375 5.67818 1.46117 5.46461 1.88939ZM7.2 1.55596C6.93617 1.02127 6.52291 0.625 5.99828 0.625C5.47425 0.625 5.05971 1.02054 4.79339 1.55479L4.79304 1.55549L3.91314 3.32983L3.91179 3.33258C3.88502 3.38768 3.82153 3.46527 3.72647 3.53634C3.63158 3.60728 3.53981 3.64587 3.4814 3.65601C3.48123 3.65604 3.48106 3.65607 3.48089 3.6561L1.88739 3.92303C1.31094 4.0199 0.829026 4.30262 0.673203 4.79463C0.517832 5.2852 0.746552 5.79532 1.15815 6.21032L2.39802 7.46043C2.44712 7.50994 2.50213 7.60321 2.53663 7.72472C2.57089 7.84541 2.57393 7.95534 2.5584 8.02637C2.55832 8.0267 2.55825 8.02703 2.55818 8.02736L2.20378 9.57236C2.20378 9.57238 2.20379 9.57235 2.20378 9.57236C2.0563 10.215 2.10747 10.8516 2.56078 11.1851C3.016 11.52 3.63725 11.3743 4.20167 11.0366L5.6937 10.146C5.69402 10.1459 5.69433 10.1457 5.69465 10.1455C5.76151 10.1066 5.87159 10.0766 6.00078 10.0766C6.13091 10.0766 6.23873 10.107 6.30151 10.1445L7.79649 11.0368C8.36157 11.3734 8.98359 11.5217 9.43877 11.1871C9.89239 10.8537 9.9411 10.2159 9.7941 9.57269L9.43963 8.02736C9.43955 8.02703 9.43948 8.0267 9.43941 8.02637C9.42387 7.95534 9.42691 7.84541 9.46118 7.72472C9.49567 7.60321 9.55068 7.50994 9.59979 7.46043L10.8387 6.21123C10.8389 6.21109 10.839 6.21096 10.8392 6.21082C11.2534 5.7958 11.4829 5.28525 11.3263 4.79395C11.1695 4.30225 10.6867 4.01987 10.1106 3.92306L8.51578 3.6559C8.4545 3.64561 8.36137 3.60657 8.26626 3.53582C8.17106 3.46499 8.10773 3.38756 8.08102 3.33258L7.2 1.55596C7.20004 1.55603 7.19996 1.55588 7.2 1.55596Z" fill="#F5A623"/>
</svg>
