<svg width="11" height="11" viewBox="0 0 11 11" fill="none" xmlns="http://www.w3.org/2000/svg">
<path fill-rule="evenodd" clip-rule="evenodd" d="M5.02123 1.02905C4.82436 1.28612 4.60215 1.68275 4.27938 2.26178L4.11553 2.55571C4.10566 2.57342 4.0959 2.59097 4.08625 2.60835C3.93588 2.87895 3.80897 3.10735 3.60447 3.26259C3.39776 3.41951 3.14577 3.47613 2.85292 3.54195C2.8341 3.54618 2.81511 3.55044 2.79595 3.55478L2.47778 3.62677C1.85012 3.76878 1.42312 3.8665 1.13065 3.98175C0.845254 4.09423 0.785011 4.18638 0.762048 4.26022C0.737813 4.33815 0.737092 4.45736 0.907714 4.7284C1.08089 5.00349 1.37304 5.34661 1.8003 5.84624L2.01721 6.09989C2.02982 6.11463 2.04231 6.1292 2.05468 6.14363C2.25618 6.37868 2.4242 6.57467 2.50127 6.8225C2.57787 7.06884 2.55248 7.3277 2.5217 7.64156C2.51981 7.66081 2.5179 7.68027 2.516 7.69995L2.4832 8.03837C2.41866 8.70446 2.37513 9.16309 2.38985 9.49347C2.40454 9.82323 2.47419 9.91439 2.52957 9.95642C2.57882 9.99381 2.66987 10.0352 2.96648 9.95021C3.26792 9.86384 3.66854 9.68056 4.25625 9.40996L4.55416 9.27279C4.57251 9.26434 4.59068 9.25594 4.60869 9.24761C4.88109 9.12168 5.11741 9.01242 5.37525 9.01242C5.63309 9.01242 5.86941 9.12168 6.14181 9.24761C6.15982 9.25594 6.178 9.26434 6.19635 9.27279L6.49425 9.40996C7.08196 9.68056 7.48259 9.86384 7.78402 9.95021C8.08064 10.0352 8.17168 9.99381 8.22094 9.95642C8.27631 9.91439 8.34596 9.82323 8.36065 9.49347C8.37537 9.16308 8.33185 8.70446 8.2673 8.03837L8.23451 7.69995C8.2326 7.68027 8.23069 7.66082 8.22881 7.64157C8.19802 7.3277 8.17263 7.06885 8.24924 6.8225C8.32631 6.57467 8.49432 6.37868 8.69583 6.14362C8.7082 6.1292 8.72069 6.11463 8.73329 6.09989L8.9502 5.84624C9.37747 5.34661 9.66962 5.00349 9.84279 4.7284C10.0134 4.45736 10.0127 4.33815 9.98846 4.26022C9.96549 4.18638 9.90525 4.09423 9.61985 3.98175C9.32738 3.8665 8.90039 3.76878 8.27273 3.62677L7.95455 3.55478C7.9354 3.55044 7.91641 3.54618 7.89758 3.54195C7.60473 3.47613 7.35274 3.41951 7.14604 3.26259C6.94154 3.10735 6.81462 2.87895 6.66426 2.60835C6.6546 2.59097 6.64485 2.57342 6.63497 2.5557L6.47112 2.26178C6.14835 1.68275 5.92614 1.28612 5.72927 1.02905C5.53259 0.772216 5.43213 0.75 5.37525 0.75C5.31837 0.75 5.21791 0.772216 5.02123 1.02905ZM4.42578 0.573048C4.66412 0.261816 4.9587 0 5.37525 0C5.7918 0 6.08639 0.261815 6.32473 0.573048C6.55892 0.878864 6.80726 1.32438 7.11077 1.86888L7.29006 2.19053C7.48633 2.54262 7.53654 2.61741 7.59952 2.66522C7.66014 2.71124 7.73835 2.7369 8.12006 2.82327L8.47007 2.90246C9.05789 3.03544 9.54215 3.14499 9.89483 3.28398C10.2609 3.42826 10.5813 3.6409 10.7046 4.03751C10.8267 4.43004 10.6895 4.79116 10.4775 5.12795C10.2715 5.45519 9.94247 5.83992 9.54055 6.30989L9.30329 6.58733C9.04479 6.88962 8.99079 6.96358 8.96541 7.04521C8.93953 7.12844 8.94196 7.22461 8.98101 7.62761L9.01678 7.99667C9.07765 8.62468 9.12728 9.13681 9.10991 9.52685C9.09222 9.92383 9.00206 10.3051 8.67442 10.5538C8.34066 10.8072 7.95232 10.7786 7.57744 10.6712C7.21393 10.567 6.76077 10.3584 6.2105 10.105L5.88267 9.95405C5.524 9.7889 5.44722 9.76242 5.37525 9.76242C5.30329 9.76242 5.2265 9.7889 4.86783 9.95405L4.54 10.105C3.98973 10.3584 3.53657 10.567 3.17307 10.6712C2.79818 10.7786 2.40984 10.8072 2.07608 10.5538C1.74845 10.3051 1.65828 9.92383 1.64059 9.52685C1.62322 9.13681 1.67286 8.62467 1.73373 7.99666L1.76949 7.62761C1.80854 7.22461 1.81098 7.12844 1.7851 7.04521C1.75971 6.96358 1.70571 6.88962 1.44721 6.58733L1.20997 6.30991C0.808043 5.83993 0.479008 5.45519 0.273007 5.12795C0.0609911 4.79116 -0.0761868 4.43004 0.0458767 4.03751C0.169212 3.6409 0.489577 3.42826 0.855672 3.28398C1.20835 3.14499 1.69261 3.03544 2.28043 2.90246L2.31226 2.89526L2.63044 2.82327C3.01216 2.7369 3.09036 2.71124 3.15098 2.66522C3.21396 2.61741 3.26417 2.54262 3.46044 2.19053L3.63974 1.86888C3.94325 1.32438 4.19158 0.878864 4.42578 0.573048Z" fill="#F5A623"/>
</svg>
