<svg width="24" height="24" viewBox="0 0 24 24" fill="none" xmlns="http://www.w3.org/2000/svg">
<path opacity="0.4" fill-rule="evenodd" clip-rule="evenodd" d="M21.2212 5.53884C21.7464 6.33298 21.9339 7.33687 22.0008 8.87895V15.1211C21.9339 16.6631 21.7464 17.667 21.2212 18.4612C20.919 18.918 20.5436 19.3154 20.112 19.6353C18.9455 20.5 17.2999 20.5 14.0086 20.5H9.99389C6.70262 20.5 5.05698 20.5 3.89046 19.6353C3.45888 19.3154 3.08351 18.918 2.78131 18.4612C2.2561 17.6671 2.0686 16.6634 2.00167 15.1216C1.99022 14.8579 2.21732 14.6562 2.46614 14.6562C3.85193 14.6562 4.97533 13.467 4.97533 12C4.97533 10.533 3.85193 9.34375 2.46614 9.34375C2.21732 9.34375 1.99022 9.14208 2.00167 8.87843C2.0686 7.33665 2.2561 6.33289 2.78131 5.53884C3.08351 5.08196 3.45888 4.68459 3.89046 4.36468C5.05698 3.5 6.70262 3.5 9.99389 3.5H14.0086C17.2999 3.5 18.9455 3.5 20.112 4.36468C20.5436 4.68459 20.919 5.08196 21.2212 5.53884ZM15.5471 10.498L15.0191 9.43335C14.7342 8.85568 14.2662 8.85568 13.9782 9.43335L13.4503 10.498C13.3783 10.6462 13.1863 10.7883 13.0273 10.8155L12.0705 10.9758C11.4585 11.0787 11.3175 11.5263 11.7555 11.9678L12.4994 12.7179C12.6254 12.8449 12.6944 13.0899 12.6554 13.2653L12.4424 14.1938C12.2744 14.9258 12.6644 15.2131 13.3063 14.829L14.2032 14.2937C14.3682 14.1969 14.6352 14.1969 14.7972 14.2937L15.6941 14.829C16.339 15.2131 16.7259 14.9288 16.558 14.1938L16.345 13.2653C16.306 13.0899 16.375 12.8449 16.501 12.7179L17.2449 11.9678C17.6858 11.5263 17.5418 11.0787 16.9299 10.9758L15.973 10.8155C15.811 10.7883 15.6191 10.6462 15.5471 10.498Z" fill="#1F1F1F" fill-opacity="0.6"/>
<path fill-rule="evenodd" clip-rule="evenodd" d="M14.4987 8.25002C15.1076 8.25002 15.4949 8.7051 15.6902 9.10055L15.6906 9.10147L16.1809 10.09L17.0531 10.2361C17.4913 10.3098 18.0161 10.5534 18.1957 11.1169C18.375 11.6794 18.0897 12.1816 17.7755 12.4967L17.7745 12.4977L17.0946 13.1833L17.288 14.0267C17.386 14.4556 17.4164 15.1366 16.8739 15.5353C16.3284 15.9363 15.6863 15.6979 15.3086 15.4729L14.4991 14.9898L13.69 15.4727C13.31 15.7 12.6697 15.9346 12.1251 15.534C11.5842 15.136 11.6113 14.4574 11.7103 14.026L11.9036 13.1833L11.2219 12.4959C10.9096 12.1811 10.6254 11.6795 10.8032 11.1183C10.9818 10.5542 11.5065 10.3098 11.9454 10.2361L12.814 10.0905L13.3052 9.10007L13.3059 9.09867C13.5026 8.70412 13.8907 8.25002 14.4987 8.25002ZM14.1221 10.8291L14.4976 10.0719L14.8731 10.8291C14.9757 11.0385 15.134 11.197 15.2775 11.3038C15.422 11.4113 15.6196 11.5168 15.848 11.5551L16.49 11.6627L15.9674 12.1897C15.7926 12.3659 15.6914 12.5824 15.6385 12.7686C15.5855 12.9553 15.5588 13.1899 15.6117 13.428L15.739 13.983L15.1804 13.6496C14.9551 13.515 14.7062 13.471 14.5002 13.471C14.2935 13.471 14.0465 13.5153 13.8226 13.6467L13.2591 13.983L13.3853 13.4329L13.3864 13.428C13.4393 13.1899 13.4127 12.9553 13.3597 12.7686C13.3068 12.5824 13.2056 12.3659 13.0308 12.1897L12.5081 11.6627L13.1502 11.5551L13.1528 11.5547C13.3805 11.5157 13.5767 11.4095 13.7194 11.3027C13.8616 11.1964 14.0196 11.0383 14.1221 10.8291Z" fill="#1F1F1F" fill-opacity="0.6"/>
<path fill-rule="evenodd" clip-rule="evenodd" d="M9.94736 2.75002L14.0539 2.75002C15.6606 2.75001 16.9294 2.75 17.9396 2.86273C18.9753 2.9783 19.8261 3.21965 20.558 3.76218C21.0612 4.13514 21.4967 4.59682 21.8461 5.1251C22.4914 6.10066 22.6817 7.28335 22.7495 8.84645C22.75 8.85728 22.7502 8.86813 22.7502 8.87897L22.7502 15.1211C22.7502 15.1319 22.75 15.1428 22.7495 15.1536C22.6817 16.7167 22.4914 17.8994 21.8461 18.8749C21.4967 19.4032 21.0612 19.8649 20.558 20.2379C19.8261 20.7804 18.9753 21.0217 17.9396 21.1373C16.9294 21.25 15.6606 21.25 14.0539 21.25L9.9474 21.25C9.27868 21.25 8.66832 21.25 8.11096 21.2419C8.07482 21.2472 8.03784 21.25 8.00022 21.25C7.95369 21.25 7.90815 21.2458 7.86397 21.2377C7.18539 21.2242 6.58835 21.1961 6.0616 21.1373C5.0259 21.0217 4.17514 20.7804 3.44323 20.2379C2.94008 19.8649 2.50457 19.4032 2.15515 18.8749C1.50995 17.8995 1.3196 16.7169 1.25175 15.1541C1.21934 14.4075 1.84833 13.9063 2.46553 13.9063C3.39742 13.9063 4.22471 13.0936 4.22471 12C4.22471 10.9064 3.39742 10.0938 2.46553 10.0938C1.84833 10.0938 1.21934 9.59251 1.25175 8.84592C1.3196 7.28309 1.50995 6.10055 2.15515 5.1251C2.50457 4.59682 2.94008 4.13513 3.44323 3.76218C4.17514 3.21965 5.0259 2.9783 6.0616 2.86273C6.58836 2.80395 7.18539 2.77582 7.86397 2.76237C7.90815 2.75426 7.95369 2.75002 8.00022 2.75002C8.03784 2.75002 8.07482 2.75279 8.11096 2.75814C8.66836 2.75001 9.27859 2.75002 9.94736 2.75002ZM7.25022 4.28084L7.25022 7.00002C7.25022 7.41423 7.58601 7.75002 8.00022 7.75002C8.41443 7.75002 8.75022 7.41423 8.75022 7.00002L8.75022 4.25221C9.13269 4.2501 9.54568 4.25002 9.99327 4.25002L14.008 4.25002C15.6708 4.25002 16.8559 4.25111 17.7733 4.35348C18.6749 4.45408 19.2302 4.64507 19.6648 4.96722C20.0248 5.23408 20.34 5.56715 20.595 5.95262C20.9989 6.56317 21.1836 7.38459 21.2502 8.89536L21.2502 15.1047C21.1836 16.6154 20.9989 17.4369 20.595 18.0474C20.34 18.4329 20.0248 18.766 19.6648 19.0328C19.2302 19.355 18.6749 19.546 17.7733 19.6466C16.8559 19.7489 15.6708 19.75 14.008 19.75L9.99328 19.75C9.54568 19.75 9.13269 19.7499 8.75022 19.7478L8.75022 17C8.75022 16.5858 8.41443 16.25 8.00022 16.25C7.58601 16.25 7.25022 16.5858 7.25022 17L7.25022 19.7192C6.874 19.7039 6.53589 19.6809 6.22795 19.6466C5.32639 19.546 4.77107 19.355 4.33646 19.0328C3.97645 18.766 3.6612 18.4329 3.40624 18.0474C3.02879 17.4768 2.84272 16.7219 2.76563 15.3922C4.45732 15.2329 5.72471 13.739 5.72471 12C5.72471 10.261 4.45732 8.76716 2.76563 8.60782C2.84272 7.27811 3.02879 6.52326 3.40624 5.95262C3.6612 5.56715 3.97645 5.23408 4.33646 4.96722C4.77107 4.64507 5.32639 4.45408 6.22795 4.35348C6.53589 4.31912 6.874 4.29617 7.25022 4.28084Z" fill="#1F1F1F" fill-opacity="0.6"/>
</svg>
