<svg width="12" height="12" viewBox="0 0 12 12" fill="none" xmlns="http://www.w3.org/2000/svg">
<path opacity="0.4" d="M2 4C2 2.58579 2 1.87868 2.5021 1.43934C3.00421 1 3.81233 1 5.42857 1H6.57143C8.18767 1 8.9958 1 9.4979 1.43934C10 1.87868 10 2.58579 10 4V8.5H2V4Z" fill="#1F1F1F" fill-opacity="0.6"/>
<path d="M5.84179 3.1256C5.69821 3.12208 5.54052 3.13437 5.40251 3.15415C5.1975 3.18353 5.00748 3.04116 4.9781 2.83614C4.94872 2.63113 5.09109 2.44112 5.2961 2.41173C5.46562 2.38744 5.66599 2.37107 5.86014 2.37582C6.04483 2.38034 6.26477 2.40448 6.44777 2.48825C6.54265 2.53169 6.6502 2.60139 6.72976 2.71481C6.8148 2.83606 6.84776 2.97901 6.83159 3.1244C6.80309 3.38058 6.62603 3.62 6.4057 3.84106C5.89812 4.3503 5.26917 5.17539 4.99647 5.75301C4.9537 5.8436 4.92348 5.92037 4.9038 5.98299C4.97681 5.96408 5.07448 5.93105 5.20118 5.87657C5.68363 5.66913 6.11 5.5424 6.47008 5.48683C6.8214 5.4326 7.14587 5.44045 7.4001 5.54247C7.53143 5.59517 7.65782 5.67888 7.74911 5.80568C7.84319 5.93636 7.88227 6.08857 7.8738 6.24178C7.85799 6.52762 7.68169 6.79252 7.46021 7.01473C7.314 7.16142 7.07656 7.1618 6.92988 7.0156C6.78319 6.86939 6.7828 6.63195 6.92901 6.48527C7.04895 6.36494 7.09634 6.28063 7.11441 6.23606C7.03614 6.20698 6.86775 6.18433 6.58448 6.22805C6.30202 6.27165 5.93758 6.37632 5.49744 6.56558C5.25151 6.67132 5.02881 6.73983 4.83529 6.75277C4.64162 6.76572 4.39999 6.72436 4.24464 6.51426C4.10462 6.32492 4.11432 6.09939 4.14137 5.94652C4.1707 5.78069 4.23742 5.60404 4.31825 5.43282C4.63864 4.75419 5.32769 3.86021 5.8745 3.3116C5.9426 3.24328 5.99114 3.18663 6.02496 3.14106C5.97679 3.13326 5.91579 3.12741 5.84179 3.1256Z" fill="#1F1F1F" fill-opacity="0.6"/>
<path fill-rule="evenodd" clip-rule="evenodd" d="M6.59617 0.625H5.40383C4.61669 0.624994 3.99247 0.624989 3.50372 0.682486C3.00364 0.741316 2.58843 0.865514 2.25516 1.15712C1.91469 1.45504 1.76279 1.83715 1.69211 2.29714C1.62497 2.7341 1.62499 3.28831 1.625 3.96928L1.625 8.125H1.5C1.29289 8.125 1.125 8.29289 1.125 8.5C1.125 8.70711 1.29289 8.875 1.5 8.875H3.33766L2.17838 10.8071C2.07183 10.9847 2.12941 11.2151 2.30701 11.3216C2.4846 11.4282 2.71495 11.3706 2.8215 11.193L4.2123 8.875H5.625V10.5C5.625 10.7071 5.79289 10.875 6 10.875C6.20711 10.875 6.375 10.7071 6.375 10.5V8.875H7.7877L9.1785 11.193C9.28505 11.3706 9.5154 11.4282 9.69299 11.3216C9.87059 11.2151 9.92817 10.9847 9.82162 10.8071L8.66234 8.875H10.5C10.7071 8.875 10.875 8.70711 10.875 8.5C10.875 8.29289 10.7071 8.125 10.5 8.125H10.375V3.96927C10.375 3.28831 10.375 2.7341 10.3079 2.29714C10.2372 1.83715 10.0853 1.45504 9.74484 1.15712C9.41157 0.865514 8.99636 0.741316 8.49628 0.682486C8.00753 0.624989 7.38331 0.624994 6.59617 0.625ZM9.625 8.125V4C9.625 3.28083 9.62397 2.78447 9.56659 2.41104C9.51174 2.05409 9.41259 1.86298 9.25096 1.72156C9.08212 1.57383 8.84222 1.47835 8.40865 1.42735C7.96887 1.37561 7.38886 1.375 6.57143 1.375H5.42857C4.61115 1.375 4.03114 1.37561 3.59135 1.42735C3.15778 1.47835 2.91788 1.57383 2.74904 1.72156C2.58741 1.86298 2.48826 2.05409 2.43341 2.41104C2.37604 2.78447 2.375 3.28083 2.375 4V8.125L6 8.125L9.625 8.125Z" fill="#1F1F1F" fill-opacity="0.6"/>
</svg>
