<svg width="12" height="12" viewBox="0 0 12 12" fill="none" xmlns="http://www.w3.org/2000/svg">
<path opacity="0.4" d="M9.96019 2.69337C8.80856 1.93659 7.4521 1.5 6 1.5C4.5479 1.5 3.19144 1.93659 2.03981 2.69337C1.40877 3.10805 1.09325 3.31539 1.0137 3.7883C0.934153 4.26121 1.20401 4.62924 1.74371 5.36529L4 8.5C5.26752 7.83333 6.73248 7.83333 8 8.5L10.2563 5.36529C10.796 4.62923 11.0658 4.26121 10.9863 3.7883C10.9067 3.31539 10.5912 3.10805 9.96019 2.69337Z" fill="#1F1F1F" fill-opacity="0.6"/>
<path fill-rule="evenodd" clip-rule="evenodd" d="M2.62138 7.19649L2.69709 7.31896L2.70679 7.31298L4.12735 9.25036C4.4778 9.72834 4.765 10.12 5.02803 10.3885C5.30057 10.6667 5.60601 10.875 5.99997 10.875C6.39393 10.875 6.69937 10.6667 6.97191 10.3885C7.23494 10.1201 7.52213 9.72836 7.87257 9.25039L9.2931 7.31305L9.30268 7.31896L9.37747 7.19798L10.5756 5.564C10.831 5.21566 11.0483 4.91931 11.187 4.64956C11.3377 4.3563 11.4128 4.0635 11.3561 3.72609C11.249 3.08962 10.7978 2.79399 10.2393 2.42796L10.1661 2.37998C8.9563 1.58498 7.52876 1.125 5.99997 1.125C4.47118 1.125 3.04364 1.58498 1.83384 2.37998L1.76069 2.42796C1.20209 2.79399 0.750935 3.08962 0.64387 3.72609C0.587112 4.0635 0.662192 4.3563 0.812943 4.64956C0.95161 4.91931 1.16893 5.21566 1.42437 5.564L2.62138 7.19649ZM2.24572 3.00676C3.33919 2.28821 4.62456 1.875 5.99997 1.875C7.37538 1.875 8.66075 2.28821 9.75422 3.00676C10.4243 3.44707 10.5691 3.56872 10.6165 3.8505C10.6393 3.986 10.6192 4.11367 10.52 4.30667C10.4443 4.45382 10.3332 4.61953 10.1786 4.8349C7.5569 3.22167 4.44309 3.2217 1.82141 4.835C1.66678 4.61959 1.55563 4.45384 1.47997 4.30667C1.38076 4.11367 1.36069 3.986 1.38348 3.8505C1.43088 3.56872 1.57568 3.44707 2.24572 3.00676ZM2.26542 5.44267C4.61816 4.01914 7.38183 4.01911 9.73459 5.44257L9.07732 6.33897C7.12996 5.38703 4.86995 5.38701 2.92257 6.3389L2.26542 5.44267ZM7.39329 8.63567L7.28545 8.78275C6.91291 9.29083 6.65706 9.6382 6.43615 9.8637C6.22034 10.084 6.09735 10.125 5.99997 10.125C5.90259 10.125 5.7796 10.084 5.56379 9.8637C5.34288 9.6382 5.08703 9.29083 4.71449 8.78275L4.60674 8.6358C5.51027 8.28811 6.48975 8.28807 7.39329 8.63567ZM7.85023 8.0125L8.62584 6.9547C6.95526 6.18179 5.04465 6.18177 3.37405 6.95464L4.14982 8.01264C5.33932 7.49583 6.6607 7.49579 7.85023 8.0125Z" fill="#1F1F1F" fill-opacity="0.6"/>
</svg>
