<svg width="12" height="12" viewBox="0 0 12 12" fill="none" xmlns="http://www.w3.org/2000/svg">
<path opacity="0.4" d="M9.96019 2.69337C8.80856 1.93659 7.4521 1.5 6 1.5C4.5479 1.5 3.19144 1.93659 2.03981 2.69337C1.40877 3.10805 1.09325 3.31539 1.0137 3.7883C0.934153 4.26121 1.20401 4.62924 1.74371 5.36529L4 8.5C5.26752 7.83333 6.73248 7.83333 8 8.5L10.2563 5.36529C10.796 4.62923 11.0658 4.26121 10.9863 3.7883C10.9067 3.31539 10.5912 3.10805 9.96019 2.69337Z" fill="#1F1F1F" fill-opacity="0.6"/>
<path fill-rule="evenodd" clip-rule="evenodd" d="M2.62143 7.19649L2.69715 7.31896L2.70684 7.31298L4.1274 9.25036C4.47786 9.72834 4.76506 10.12 5.02809 10.3885C5.30063 10.6667 5.60607 10.875 6.00003 10.875C6.39399 10.875 6.69943 10.6667 6.97197 10.3885C7.235 10.1201 7.52219 9.72836 7.87263 9.25039L9.29316 7.31305L9.30273 7.31896L9.37753 7.19798L10.5756 5.564C10.8311 5.21566 11.0484 4.91931 11.1871 4.64956C11.3378 4.3563 11.4129 4.0635 11.3561 3.72609C11.2491 3.08962 10.7979 2.79399 10.2393 2.42796L10.1662 2.37998C8.95636 1.58498 7.52882 1.125 6.00003 1.125C4.47124 1.125 3.0437 1.58498 1.8339 2.37998L1.76075 2.42796C1.20215 2.79399 0.750994 3.08962 0.643929 3.72609C0.587171 4.0635 0.662251 4.3563 0.813002 4.64956C0.951669 4.91931 1.16899 5.21566 1.42443 5.564L2.62143 7.19649ZM2.24578 3.00676C3.33925 2.28821 4.62462 1.875 6.00003 1.875C7.37544 1.875 8.66081 2.28821 9.75428 3.00676C10.4243 3.44707 10.5691 3.56872 10.6165 3.8505C10.6393 3.986 10.6192 4.11367 10.52 4.30667C10.4444 4.45382 10.3333 4.61953 10.1787 4.8349C7.55696 3.22167 4.44315 3.2217 1.82147 4.835C1.66684 4.61959 1.55569 4.45384 1.48003 4.30667C1.38081 4.11367 1.36074 3.986 1.38354 3.8505C1.43094 3.56872 1.57574 3.44707 2.24578 3.00676ZM2.26548 5.44267C4.61822 4.01914 7.38189 4.01911 9.73465 5.44257L9.07738 6.33897C7.13002 5.38703 4.87001 5.38701 2.92263 6.3389L2.26548 5.44267ZM7.39335 8.63567L7.28551 8.78275C6.91297 9.29083 6.65712 9.6382 6.43621 9.8637C6.2204 10.084 6.09741 10.125 6.00003 10.125C5.90265 10.125 5.77966 10.084 5.56385 9.8637C5.34294 9.6382 5.08709 9.29083 4.71455 8.78275L4.6068 8.6358C5.51033 8.28811 6.48981 8.28807 7.39335 8.63567ZM7.85029 8.0125L8.6259 6.9547C6.95532 6.18179 5.04471 6.18177 3.37411 6.95464L4.14988 8.01264C5.33938 7.49583 6.66076 7.49579 7.85029 8.0125Z" fill="#1F1F1F" fill-opacity="0.6"/>
</svg>
